<svg xmlns="http://www.w3.org/2000/svg" width="100.85" height="100.85" viewBox="0 0 100.85 100.85">
  <g id="Group_73" data-name="Group 73" transform="translate(-100 -4339)">
    <path id="Path_13598" data-name="Path 13598" d="M460.515,326.232a25.027,25.027,0,0,1-25.55,0,.5.5,0,0,0-.52.855,26.032,26.032,0,0,0,26.59,0,.5.5,0,0,0-.52-.855Z" transform="translate(-297.566 4086.191)" fill="#3cdf00"/>
    <path id="Path_13599" data-name="Path 13599" d="M470.914,326.909l-6.86-2.851a7.162,7.162,0,0,1-4.426-6.633v-9.48a18.053,18.053,0,0,0,6.234-13.629l.009-.208c.082.005.166.022.247.022a4.289,4.289,0,0,0,4.214-3.539l1.4-7.945a4.292,4.292,0,0,0-3.473-4.959,4.2,4.2,0,0,0-1.607.035l.829-17.384a7.186,7.186,0,0,0-7.178-7.529H435.152a7.186,7.186,0,0,0-7.179,7.529l.83,17.38a4.194,4.194,0,0,0-1.583-.031,4.292,4.292,0,0,0-3.473,4.959l1.4,7.945a4.289,4.289,0,0,0,4.211,3.535c.074,0,.15-.017.226-.021l.008.187a18.081,18.081,0,0,0,6.26,13.673v9.46a7.163,7.163,0,0,1-4.427,6.633l-6.86,2.851a30.519,30.519,0,0,0-10.438,7.165,20.008,20.008,0,0,0-5.436,14.073,5.571,5.571,0,0,0,5.556,5.512h67.031a5.578,5.578,0,0,0,5.557-5.624,20.077,20.077,0,0,0-5.435-13.91A30.523,30.523,0,0,0,470.914,326.909Zm-2.827-48.237a3.292,3.292,0,0,1,2.661,3.8l-1.4,7.946a3.257,3.257,0,0,1-3.429,2.687l.684-14.34A3.233,3.233,0,0,1,468.087,278.672Zm-40.6,13.86a3.252,3.252,0,0,1-1.352-2.114l-1.4-7.946a3.258,3.258,0,0,1,4.12-3.714l.685,14.352A3.249,3.249,0,0,1,427.485,292.532Zm3.108,1.736-1.621-33.978a6.186,6.186,0,0,1,6.18-6.481H460.3a6.186,6.186,0,0,1,6.179,6.481l-1.621,34a17.1,17.1,0,0,1-6.058,13.05.379.379,0,0,0-.042.038,17.071,17.071,0,0,1-22.007.053.5.5,0,0,0-.166-.15A17.119,17.119,0,0,1,430.593,294.268Zm6.26,23.157v-8.656a18,18,0,0,0,21.775-.017v8.673a8.16,8.16,0,0,0,1.188,4.221,21.857,21.857,0,0,1-24.152,0A8.152,8.152,0,0,0,436.853,317.425Zm44.426,35.234H414.248a4.569,4.569,0,0,1-4.556-4.52,19.008,19.008,0,0,1,5.16-13.374,29.49,29.49,0,0,1,10.1-6.932l6.861-2.851a8.152,8.152,0,0,0,3.283-2.515,22.855,22.855,0,0,0,25.294,0,8.159,8.159,0,0,0,3.283,2.515l6.86,2.851a29.5,29.5,0,0,1,10.145,6.981,19.121,19.121,0,0,1,5.161,13.289A4.562,4.562,0,0,1,481.279,352.659Z" transform="translate(-297.566 4086.191)" fill="#3cdf00"/>
    <path id="Path_13600" data-name="Path 13600" d="M456.743,277.911a2.755,2.755,0,1,0,2.755,2.755A2.758,2.758,0,0,0,456.743,277.911Zm0,4.509a1.755,1.755,0,1,1,1.755-1.754A1.756,1.756,0,0,1,456.743,282.42Z" transform="translate(-297.566 4086.191)" fill="#3cdf00"/>
    <path id="Path_13601" data-name="Path 13601" d="M438.712,277.911a2.755,2.755,0,1,0,2.754,2.755A2.758,2.758,0,0,0,438.712,277.911Zm0,4.509a1.755,1.755,0,1,1,1.754-1.754A1.756,1.756,0,0,1,438.712,282.42Z" transform="translate(-297.566 4086.191)" fill="#3cdf00"/>
    <path id="Path_13602" data-name="Path 13602" d="M442.3,274.683a.5.5,0,1,0,.567-.823,7.44,7.44,0,0,0-8.314,0,.5.5,0,0,0,.567.823A6.429,6.429,0,0,1,442.3,274.683Z" transform="translate(-297.566 4086.191)" fill="#3cdf00"/>
    <path id="Path_13603" data-name="Path 13603" d="M453.2,298.986a9.806,9.806,0,0,1-10.955,0,.5.5,0,1,0-.567.823,10.649,10.649,0,0,0,12.09,0,.5.5,0,1,0-.568-.823Z" transform="translate(-297.566 4086.191)" fill="#3cdf00"/>
    <path id="Path_13604" data-name="Path 13604" d="M453.154,274.683a6.427,6.427,0,0,1,7.179,0,.5.5,0,1,0,.567-.823,7.441,7.441,0,0,0-8.314,0,.5.5,0,1,0,.568.823Z" transform="translate(-297.566 4086.191)" fill="#3cdf00"/>
    <path id="Path_13605" data-name="Path 13605" d="M447.728,264.376a.5.5,0,0,0,.5-.5v-7.291a.5.5,0,0,0-1,0v7.291A.5.5,0,0,0,447.728,264.376Z" transform="translate(-297.566 4086.191)" fill="#3cdf00"/>
    <path id="Path_13606" data-name="Path 13606" d="M441.109,264.376a.5.5,0,0,0,.5-.5v-7.291a.5.5,0,0,0-1,0v7.291A.5.5,0,0,0,441.109,264.376Z" transform="translate(-297.566 4086.191)" fill="#3cdf00"/>
    <path id="Path_13607" data-name="Path 13607" d="M434.95,263.876v-7.291a.5.5,0,0,0-1,0v7.291a.5.5,0,0,0,1,0Z" transform="translate(-297.566 4086.191)" fill="#3cdf00"/>
    <path id="Path_13608" data-name="Path 13608" d="M461.327,264.376a.5.5,0,0,0,.5-.5v-7.291a.5.5,0,0,0-1,0v7.291A.5.5,0,0,0,461.327,264.376Z" transform="translate(-297.566 4086.191)" fill="#3cdf00"/>
    <path id="Path_13609" data-name="Path 13609" d="M454.668,264.376a.5.5,0,0,0,.5-.5v-7.291a.5.5,0,0,0-1,0v7.291A.5.5,0,0,0,454.668,264.376Z" transform="translate(-297.566 4086.191)" fill="#3cdf00"/>
    <path id="Path_13610" data-name="Path 13610" d="M447.641,294.13a.5.5,0,0,0,.5-.5V279.8a.5.5,0,1,0-1,0v13.83A.5.5,0,0,0,447.641,294.13Z" transform="translate(-297.566 4086.191)" fill="#3cdf00"/>
    <path id="Path_13611" data-name="Path 13611" d="M423.668,265.86a13.051,13.051,0,1,0-13.051,13.051A13.066,13.066,0,0,0,423.668,265.86Zm-25.1,0a12.051,12.051,0,1,1,12.051,12.051A12.065,12.065,0,0,1,398.566,265.86Z" transform="translate(-297.566 4086.191)" fill="#3cdf00"/>
    <path id="Path_13612" data-name="Path 13612" d="M485.365,252.809a13.051,13.051,0,1,0,13.051,13.051A13.066,13.066,0,0,0,485.365,252.809Zm0,25.1a12.051,12.051,0,1,1,12.051-12.051A12.065,12.065,0,0,1,485.365,277.911Z" transform="translate(-297.566 4086.191)" fill="#3cdf00"/>
    <path id="Path_13613" data-name="Path 13613" d="M410.1,281.512a.5.5,0,0,0-.965.265c.073.266,1.9,6.539,11.923,8.818a.533.533,0,0,0,.112.012.5.5,0,0,0,.11-.988C411.873,287.482,410.115,281.571,410.1,281.512Z" transform="translate(-297.566 4086.191)" fill="#3cdf00"/>
    <path id="Path_13614" data-name="Path 13614" d="M487.469,281.164a.5.5,0,0,0-.615.348c-.017.059-1.775,5.97-11.18,8.107a.5.5,0,0,0,.11.988.531.531,0,0,0,.111-.012c10.028-2.279,11.85-8.552,11.923-8.818A.5.5,0,0,0,487.469,281.164Z" transform="translate(-297.566 4086.191)" fill="#3cdf00"/>
    <path id="Path_13615" data-name="Path 13615" d="M412.841,272.709a8.415,8.415,0,0,0,1.855-.153,1.628,1.628,0,0,0,1.377-1.549,1.323,1.323,0,0,0-.07-.427,1.6,1.6,0,0,0,.657-1.281,1.7,1.7,0,0,0-.14-.688,1.656,1.656,0,0,0,.446-1.148,1.7,1.7,0,0,0-.2-.809,1.653,1.653,0,0,0,.28-.957,1.608,1.608,0,0,0-1.619-1.631h-2.288c-.147,0-.236-.071-.236-.192.019-.663,1.026-2.173,1.026-3.4a1.392,1.392,0,0,0-1.409-1.466c-.6,0-1.007.312-1.408,1.07a24.773,24.773,0,0,1-3.041,4.412h-1.154c-1.511,0-2.722,1.695-2.722,3.786,0,2.059,1.326,3.767,2.952,3.767h2.02a6.141,6.141,0,0,0,2.837.663Zm-5.692-1.612c-1.071,0-2.008-1.275-2.008-2.818,0-1.568.842-2.837,1.785-2.837h.529a5.69,5.69,0,0,0-.644,2.793,4.041,4.041,0,0,0,1.129,2.862Zm.612-2.85a4.773,4.773,0,0,1,1.116-3.232,29.467,29.467,0,0,0,3.085-4.494c.236-.471.363-.554.554-.554.287,0,.459.178.459.51,0,.981-1.032,2.467-1.032,3.423a1.17,1.17,0,0,0,1.306,1.115h2.161a.669.669,0,0,1,.676.695.844.844,0,0,1-.319.676.3.3,0,0,0-.1.217.256.256,0,0,0,.071.178,1.138,1.138,0,0,1,.274.682.885.885,0,0,1-.4.721.4.4,0,0,0-.191.306.309.309,0,0,0,.044.14,1.354,1.354,0,0,1,.236.669c0,.319-.2.555-.624.778a.271.271,0,0,0-.16.236.312.312,0,0,0,.038.133,1.292,1.292,0,0,1,.16.561c0,.287-.211.517-.65.625a6.765,6.765,0,0,1-1.613.121l-.842-.006C409.482,271.728,407.761,270.293,407.761,268.247Z" transform="translate(-297.566 4086.191)" fill="#3cdf00"/>
    <path id="Path_13616" data-name="Path 13616" d="M491.714,264.257a1.656,1.656,0,0,0-.446-1.148,1.7,1.7,0,0,0,.14-.688,1.6,1.6,0,0,0-.657-1.281,1.323,1.323,0,0,0,.07-.427,1.628,1.628,0,0,0-1.376-1.549,8.427,8.427,0,0,0-1.855-.153h-.842a6.134,6.134,0,0,0-2.836.663h-2.021c-1.626,0-2.952,1.708-2.952,3.767,0,2.091,1.212,3.786,2.722,3.786h1.154a24.807,24.807,0,0,1,3.041,4.411c.4.759.8,1.071,1.409,1.071a1.392,1.392,0,0,0,1.408-1.466c0-1.224-1.007-2.734-1.026-3.4,0-.121.089-.192.236-.192h2.288a1.608,1.608,0,0,0,1.619-1.631,1.653,1.653,0,0,0-.28-.957A1.7,1.7,0,0,0,491.714,264.257Zm-10.04,2.021c-.943,0-1.785-1.269-1.785-2.837,0-1.543.937-2.818,2.008-2.818h.791a4.042,4.042,0,0,0-1.129,2.862,5.7,5.7,0,0,0,.644,2.793Zm8.485.427H488a1.17,1.17,0,0,0-1.307,1.115c0,.956,1.032,2.442,1.032,3.423,0,.332-.172.51-.458.51-.192,0-.319-.083-.555-.554a29.462,29.462,0,0,0-3.085-4.494,4.773,4.773,0,0,1-1.116-3.232c0-2.046,1.721-3.481,4.246-3.5l.841-.006a6.766,6.766,0,0,1,1.613.121c.44.108.65.338.65.625a1.3,1.3,0,0,1-.159.561.3.3,0,0,0-.039.133.271.271,0,0,0,.16.236c.427.223.624.459.624.778a1.361,1.361,0,0,1-.235.669.3.3,0,0,0-.045.141.4.4,0,0,0,.191.306.882.882,0,0,1,.4.72,1.138,1.138,0,0,1-.274.682.254.254,0,0,0-.07.178.3.3,0,0,0,.1.217.845.845,0,0,1,.318.676A.669.669,0,0,1,490.159,266.7Z" transform="translate(-297.566 4086.191)" fill="#3cdf00"/>
  </g>
</svg>
