<?xml version="1.0" encoding="utf-8"?>
<!-- Generator: Adobe Illustrator 24.0.3, SVG Export Plug-In . SVG Version: 6.00 Build 0)  -->
<svg version="1.1" id="Camada_1" xmlns="http://www.w3.org/2000/svg" xmlns:xlink="http://www.w3.org/1999/xlink" x="0px" y="0px"
	 viewBox="0 0 62 61.8" style="enable-background:new 0 0 62 61.8;" xml:space="preserve">
<style type="text/css">
	.st0{fill:none;stroke:#3CDF00;stroke-width:2;stroke-linecap:round;stroke-linejoin:round;}
</style>
<g id="Group_64" transform="translate(-522 -212.987)">
	<path id="Path_13690" class="st0" d="M523,227.6c-0.1-4.1,1.5-8,4.5-10.8c1.6-1.7,3.8-2.7,6.2-2.8c1.8,0,3.5,0.8,4.5,2.3l6.9,9.7
		c0.9,1.1,1.4,2.5,1.6,3.9c0,1.5-0.8,2.8-2.3,4.3l-2.3,2.3c-0.3,0.3-0.5,0.8-0.5,1.2c0,0.4,0.1,0.9,0.3,1.3c1,2,4,5.4,7.1,8.5
		c3.2,3.1,6.6,6.1,8.5,7.1c0.4,0.2,0.9,0.3,1.3,0.3c0.5,0,0.9-0.2,1.2-0.5l2.3-2.3c1.5-1.5,2.8-2.3,4.2-2.3c1.4,0.1,2.8,0.7,3.9,1.6
		l9.8,7c1.4,1,2.2,2.6,2.2,4.3c-0.1,2.3-1.1,4.6-2.7,6.2c-2.7,3.1-6.6,4.8-10.7,4.7c-9.2,0-20.5-7.2-29.8-16.5
		C530.1,248,523,236.8,523,227.6z"/>
	<path id="Path_13692" class="st0" d="M558.7,242.4l18.5-18.5v11.8c0,1.6,1.4,2.9,3,2.9c1.6,0,2.8-1.3,2.9-2.9v-18.8
		c0-1.6-1.3-2.9-2.9-2.9h-18.8c-1.6,0-2.9,1.3-3,2.9c0,1.6,1.3,2.9,2.9,3c0,0,0.1,0,0.1,0H573l-18.5,18.5"/>
</g>
</svg>
