<?xml version="1.0" encoding="utf-8"?>
<!-- Generator: Adobe Illustrator 24.0.3, SVG Export Plug-In . SVG Version: 6.00 Build 0)  -->
<svg version="1.1" id="Camada_1" xmlns="http://www.w3.org/2000/svg" xmlns:xlink="http://www.w3.org/1999/xlink" x="0px" y="0px"
	 viewBox="0 0 360 342" style="enable-background:new 0 0 360 342;" xml:space="preserve">
<style type="text/css">
	.st0{fill:#3CDF00;}
</style>
<g>
	<g>
		<path class="st0" d="M215.8,340.8h-71.5c-38.4,0-74.1-20.6-93.2-53.7l-35.8-62c-19-33.4-19-74.7,0-107.8l36-62.3
			c19.2-33.1,54.9-53.7,93.2-53.7H216c38.5,0,74.1,20.7,93,54l35.8,62c19,33.4,19,74.7,0,107.8l-35.8,62
			C289.7,320.2,254,340.8,215.8,340.8z M144.4,2.2c-37.9,0-73.3,20.4-92.3,53.2l-36,62.3c-18.9,32.8-18.9,73.7,0,106.8l35.8,62
			c18.9,32.8,54.2,53.2,92.3,53.2h71.5c37.9,0,73.3-20.4,92.3-53.2l35.8-62c18.9-32.8,18.9-73.7,0-106.8l-35.8-62
			c-18.7-33-54-53.5-92.1-53.5H144.4z"/>
	</g>
</g>
</svg>
