<?xml version="1.0" encoding="utf-8"?>
<!-- Generator: Adobe Illustrator 24.0.3, SVG Export Plug-In . SVG Version: 6.00 Build 0)  -->
<svg version="1.1" id="Camada_1" xmlns="http://www.w3.org/2000/svg" xmlns:xlink="http://www.w3.org/1999/xlink" x="0px" y="0px"
	 viewBox="0 0 30 30" style="enable-background:new 0 0 30 30;" xml:space="preserve">
<style type="text/css">
	.st0{fill:#FFFFFF;}
</style>
<path class="st0" d="M25.3,0H4.7C2.1,0,0,2.1,0,4.7v20.7C0,27.9,2.1,30,4.7,30h20.7c2.6,0,4.7-2.1,4.7-4.7V4.7C30,2.1,27.9,0,25.3,0
	z M9.2,25.6H4.8V11.5h4.4V25.6z M7.1,9.5C5.7,9.5,4.5,8.4,4.5,7c0-1.4,1.1-2.5,2.5-2.5c0,0,0,0,0,0c1.4,0,2.5,1.1,2.5,2.5
	S8.4,9.5,7.1,9.5z M25.5,25.6h-4.4v-6.9c0-1.7,0-3.8-2.3-3.8s-2.7,1.8-2.7,3.7v7H12V11.5h4.2v2c0.8-1.5,2.4-2.3,4.1-2.3
	c4.5,0,5.2,3,5.2,6.8V25.6z"/>
</svg>
