<svg xmlns="http://www.w3.org/2000/svg" viewBox="0 0 350 261.74"><defs><style>.cls-1{fill:#3cdf00;}</style></defs><title>Diaries_1</title><g id="Camada_2" data-name="Camada 2"><g id="Layer_1" data-name="Layer 1"><path class="cls-1" d="M81.34,123.64a9.44,9.44,0,0,1-4.62-1.06A12.57,12.57,0,0,1,73,119.34l-2.6,2.13a13.5,13.5,0,0,0,4.22,3.79,12.91,12.91,0,0,0,6.55,1.49c3.32,0,5.89-.78,7.69-2.34a8.14,8.14,0,0,0,2.7-6.48,10.07,10.07,0,0,0-.38-2.77,6.42,6.42,0,0,0-1.3-2.39,7.78,7.78,0,0,0-2.41-1.83,12.72,12.72,0,0,0-3.66-1.15l-3.19-.56a8,8,0,0,1-4.36-1.79,4.46,4.46,0,0,1-1.22-3.24,4.55,4.55,0,0,1,1.62-3.81,7.37,7.37,0,0,1,4.64-1.27,8.83,8.83,0,0,1,4.51,1,10.33,10.33,0,0,1,3,2.64l2.52-2.17a10.22,10.22,0,0,0-3.94-3.39,13.61,13.61,0,0,0-6-1.2,11.47,11.47,0,0,0-7.23,2.08,7.37,7.37,0,0,0-2.69,6.18,9.35,9.35,0,0,0,.39,2.71,6.53,6.53,0,0,0,1.28,2.39,7.45,7.45,0,0,0,2.36,1.85,12.18,12.18,0,0,0,3.64,1.15l3.32.56a8.14,8.14,0,0,1,4.3,1.71A4.52,4.52,0,0,1,88,118a5.2,5.2,0,0,1-1.7,4.14A7.31,7.31,0,0,1,81.34,123.64Z"/><path class="cls-1" d="M113,125.3a8.7,8.7,0,0,0,3.05-3.66L113.61,120a7.06,7.06,0,0,1-2.3,2.81,6.18,6.18,0,0,1-3.66,1,7,7,0,0,1-2.72-.49,5.31,5.31,0,0,1-2-1.38,6,6,0,0,1-1.21-2.13,8.51,8.51,0,0,1-.4-2.68v-3.75a8.55,8.55,0,0,1,.4-2.68,6,6,0,0,1,1.21-2.13,5.6,5.6,0,0,1,2-1.38,6.8,6.8,0,0,1,2.67-.49,5.91,5.91,0,0,1,3.42.94,5.12,5.12,0,0,1,2,2.64l2.73-1.45a8.25,8.25,0,0,0-2.94-3.66,8.84,8.84,0,0,0-5.19-1.41,10.22,10.22,0,0,0-4.18.81,8.47,8.47,0,0,0-3.1,2.32,10.35,10.35,0,0,0-2,3.64,15.31,15.31,0,0,0-.68,4.73,15.88,15.88,0,0,0,.66,4.72,10,10,0,0,0,1.93,3.62,8.84,8.84,0,0,0,3.13,2.32,10.35,10.35,0,0,0,4.24.83A9.13,9.13,0,0,0,113,125.3Z"/><path class="cls-1" d="M136.53,125.94a8.56,8.56,0,0,0,3.15-2.32,10.14,10.14,0,0,0,2-3.62,15.15,15.15,0,0,0,.69-4.74,15.31,15.31,0,0,0-.69-4.73,10.23,10.23,0,0,0-2-3.64,8.56,8.56,0,0,0-3.15-2.32,11,11,0,0,0-8.3,0,8.73,8.73,0,0,0-3.15,2.32,10.55,10.55,0,0,0-2,3.64,15.62,15.62,0,0,0-.68,4.73,15.45,15.45,0,0,0,.68,4.74,10.45,10.45,0,0,0,2,3.62,8.73,8.73,0,0,0,3.15,2.32,11,11,0,0,0,8.3,0Zm-8.74-3.83q-1.76-1.69-1.75-5.28v-3.15q0-3.57,1.75-5.28a7.06,7.06,0,0,1,9.19,0q1.76,1.71,1.75,5.28v3.15q0,3.58-1.75,5.28a7.06,7.06,0,0,1-9.19,0Z"/><path class="cls-1" d="M167.55,107.21v-2.94h-10V96.53h-3.27v5.74a2.17,2.17,0,0,1-.45,1.56,2.22,2.22,0,0,1-1.56.44h-5.44v2.94h7.32v14a5.46,5.46,0,0,0,1.17,3.61,4.54,4.54,0,0,0,3.68,1.4h8.56V123.3h-10V107.21Z"/><path class="cls-1" d="M193.09,107.21v-2.94h-10V96.53h-3.28v5.74a2.17,2.17,0,0,1-.45,1.56,2.21,2.21,0,0,1-1.55.44h-5.45v2.94h7.32v14a5.46,5.46,0,0,0,1.17,3.61,4.54,4.54,0,0,0,3.68,1.4h8.56V123.3h-10V107.21Z"/><path class="cls-1" d="M212.42,113.47l-3.28,8.34H209l-3.28-8.34-3.7-9.2H198.5l8.85,21.55-2.47,6h-5.11v2.94H203a8.33,8.33,0,0,0,2.13-.24,4.87,4.87,0,0,0,1.53-.68,4.35,4.35,0,0,0,1.11-1.15,10,10,0,0,0,.85-1.64l10.9-26.78h-3.41Z"/><path class="cls-1" d="M101.71,129.05a2.27,2.27,0,0,0-1.56.45,2,2,0,0,0-.61,1.17c0,.14-.06.3-.09.49a2.93,2.93,0,0,0,0,.49,1.29,1.29,0,0,0,.42.93,2.15,2.15,0,0,0,1.54.43,2.26,2.26,0,0,0,1.55-.45,2,2,0,0,0,.62-1.17c0-.14,0-.3.08-.49a3,3,0,0,0,0-.49,1.33,1.33,0,0,0-.42-.94A2.19,2.19,0,0,0,101.71,129.05Z"/><path class="cls-1" d="M125.16,142.71H125a6.14,6.14,0,0,0-2.37-3.19,7.54,7.54,0,0,0-4.32-1.15,8.06,8.06,0,0,0-4.62,1.3,10.82,10.82,0,0,0-3.21,3.38,16.14,16.14,0,0,0-1.9,4.67,22.8,22.8,0,0,0-.6,4.55l-.35-.42-9.58,7.38-.64-.25,3.87-20.1H90.71l1.59-9.53H89.91L87.7,142.71h-.13a6.07,6.07,0,0,0-2.36-3.19,7.54,7.54,0,0,0-4.32-1.15,8.06,8.06,0,0,0-4.62,1.3,10.82,10.82,0,0,0-3.21,3.38,15.86,15.86,0,0,0-1.9,4.67,22.15,22.15,0,0,0-.62,5.17,9.7,9.7,0,0,0,1.81,6.24,6.37,6.37,0,0,0,5.26,2.23,7.06,7.06,0,0,0,4.71-1.53,12.83,12.83,0,0,0,3.08-4.05h.13l-.85,5.07h2.38l3.31-19.92h8.19l-3.24,16.68q-.09.6-.15,1a4,4,0,0,0-.06.66,2.07,2.07,0,0,0,.59,1.53,2.31,2.31,0,0,0,1.71.6,3,3,0,0,0,1-.17,5.71,5.71,0,0,0,1.06-.55c.4-.26.84-.58,1.34-1l1.85-1.45,5.41-4.17a8.88,8.88,0,0,0,1.77,5.09,6.34,6.34,0,0,0,5.25,2.23,7.06,7.06,0,0,0,4.71-1.53,12.83,12.83,0,0,0,3.08-4.05H123l-.85,5.07h2.38l3.67-22H125.8Zm-38,3.24-.94,5.49a9.21,9.21,0,0,1-1.13,3.21,12.53,12.53,0,0,1-1.8,2.45,7.14,7.14,0,0,1-2.39,1.62,7,7,0,0,1-2.64.51,4.74,4.74,0,0,1-4.06-1.72,7.11,7.11,0,0,1-1.3-4.41c0-.31,0-.63,0-1s.07-.68.13-1.08l.47-2.68a13.28,13.28,0,0,1,.93-3.15,9.06,9.06,0,0,1,1.64-2.52,7.08,7.08,0,0,1,2.34-1.64,8.44,8.44,0,0,1,5.71-.14,4.83,4.83,0,0,1,1.89,1.17,3.86,3.86,0,0,1,1,1.74A5,5,0,0,1,87.19,146Zm37.46,0-.93,5.49a9.41,9.41,0,0,1-1.13,3.21,13,13,0,0,1-1.81,2.45,6.93,6.93,0,0,1-5,2.13,4.74,4.74,0,0,1-4.06-1.72,7.11,7.11,0,0,1-1.3-4.41c0-.31,0-.63,0-1s.07-.68.13-1.08l.47-2.68a13.29,13.29,0,0,1,.94-3.15,8.4,8.4,0,0,1,1.63-2.49A7.17,7.17,0,0,1,116,141.1a7.24,7.24,0,0,1,3-.6,7.73,7.73,0,0,1,2.7.43,4.94,4.94,0,0,1,1.9,1.17,4.06,4.06,0,0,1,1,1.74A5.13,5.13,0,0,1,124.65,146Z"/><path class="cls-1" d="M156.35,129.5a1.91,1.91,0,0,0-.62,1.17c0,.14-.06.3-.09.49a2.93,2.93,0,0,0,0,.49,1.26,1.26,0,0,0,.43.93,2.1,2.1,0,0,0,1.53.43,2.23,2.23,0,0,0,1.55-.45,2,2,0,0,0,.62-1.17c0-.14.06-.3.09-.49a4.81,4.81,0,0,0,0-.49,1.3,1.3,0,0,0-.43-.94,2.15,2.15,0,0,0-1.53-.42A2.23,2.23,0,0,0,156.35,129.5Z"/><path class="cls-1" d="M181.27,154a14.08,14.08,0,0,1-3.45,4.05,8,8,0,0,1-7.36.76,4.7,4.7,0,0,1-1.9-1.51,6.06,6.06,0,0,1-1-2.19,12.3,12.3,0,0,1-.27-2.64V152a4.88,4.88,0,0,1,0-.64,43.4,43.4,0,0,0,8.66-.9,16.84,16.84,0,0,0,5-1.83,5.41,5.41,0,0,0,2.24-2.3,6,6,0,0,0,.53-2.34,4.91,4.91,0,0,0-2-4.19,8.54,8.54,0,0,0-5.21-1.47,10.77,10.77,0,0,0-8.45,3.88,13.17,13.17,0,0,0-2.41,4.3,16.24,16.24,0,0,0-.85,5.36q0,.59,0,1.14l-1-1.2-9.58,7.38-.64-.25,3.88-20.1H145.34a9.19,9.19,0,0,0-2.7.36,7.41,7.41,0,0,0-2.09,1,7.77,7.77,0,0,0-1.62,1.57,12.22,12.22,0,0,0-1.25,2.07h-.21l.85-5h-9.07l-.34,2.05h6.72l-3.36,19.92h2.39l2.17-12.94a7.22,7.22,0,0,1,1.15-3,9.11,9.11,0,0,1,1.57-1.81,7.36,7.36,0,0,1,5.11-2,40.86,40.86,0,0,1,4.35-.15h5.74l-3.24,16.68q-.07.6-.15,1a4,4,0,0,0-.06.66,2,2,0,0,0,.6,1.53,2.27,2.27,0,0,0,1.7.6,2.93,2.93,0,0,0,1-.17,5.41,5.41,0,0,0,1.06-.55,15.28,15.28,0,0,0,1.34-1c.5-.4,1.12-.88,1.86-1.45l6.08-4.68A9,9,0,0,0,167,159a8.09,8.09,0,0,0,6.26,2.36,9.73,9.73,0,0,0,5.62-1.57A14.2,14.2,0,0,0,183,155Zm-13.62-5.06a10.31,10.31,0,0,1,2.94-6.32,8,8,0,0,1,5.7-2.2,5.51,5.51,0,0,1,3.87,1.09,3.5,3.5,0,0,1,1.15,2.66,4,4,0,0,1-.49,1.87,4.44,4.44,0,0,1-2,1.73,15.45,15.45,0,0,1-4.19,1.29,45.39,45.39,0,0,1-7.13.64Z"/><path class="cls-1" d="M189.61,141.59a8.16,8.16,0,0,1,4.73-1.17,11.76,11.76,0,0,1,2.6.25,9.08,9.08,0,0,1,1.93.66,5.69,5.69,0,0,1,1.39.92,5.8,5.8,0,0,1,.89,1l1.7-1.49a8.4,8.4,0,0,0-3.15-2.45,11.78,11.78,0,0,0-5.1-1,14.42,14.42,0,0,0-3.5.41,9.18,9.18,0,0,0-2.85,1.23,5.91,5.91,0,0,0-1.93,2.11,6.05,6.05,0,0,0-.71,3,5.08,5.08,0,0,0,.51,2.4,4.51,4.51,0,0,0,1.39,1.58,6.6,6.6,0,0,0,2,.94,18.23,18.23,0,0,0,2.38.48l3.24.39a6.8,6.8,0,0,1,2.94.93,2.8,2.8,0,0,1,1.1,2.52,4.19,4.19,0,0,1-1.89,3.7,9.06,9.06,0,0,1-5.13,1.28,10.72,10.72,0,0,1-4.6-.88,8.13,8.13,0,0,1-3.19-2.7l-1.79,1.41q2.94,4.22,9.41,4.21a14.83,14.83,0,0,0,3.83-.47,9,9,0,0,0,3-1.4,6.73,6.73,0,0,0,2-2.28,6.52,6.52,0,0,0,.7-3.09,5,5,0,0,0-.55-2.47,4.36,4.36,0,0,0-1.43-1.55,6.73,6.73,0,0,0-2-.87,16.2,16.2,0,0,0-2.27-.43l-3.2-.42a14.71,14.71,0,0,1-1.66-.34,4.72,4.72,0,0,1-1.32-.6,2.58,2.58,0,0,1-.85-1,3.44,3.44,0,0,1-.3-1.51A3.85,3.85,0,0,1,189.61,141.59Z"/><path class="cls-1" d="M349.45,16l-.16-.13a1,1,0,0,0-.34-.28C342.24,10.09,336.3,2.52,327.69.06A1.53,1.53,0,0,0,326,.62a1.33,1.33,0,0,0-1.35.53C309.47,20.8,294.1,40.32,278.86,59.94q-11.66,15-23.12,30.1c-7.26,9.58-13.63,19.76-20.86,29.33a2.38,2.38,0,0,0-.18.3,1.59,1.59,0,0,0-.41.55c-2.75,6.09-2.94,12.8-4.95,19.11-2.26,7.12-5.55,13.82-7.15,21.14-.27,1.25,1,1.82,1.94,1.47a1.34,1.34,0,0,0,1,0c13.14-5.31,22.56-16.4,35-23a14.36,14.36,0,0,0,1.16-1.24,1.43,1.43,0,0,0,.24-.25c8-10.26,16.55-20,24.26-30.51C293.76,96,301.26,84.7,309.26,73.74q11.53-15.82,23.37-31.47c5.79-7.63,13.55-14.39,16.42-23.75A1.48,1.48,0,0,0,349.45,16Zm-7.72-3c-15.42,20-30.26,40.38-45.63,60.4-7.76,10.11-15.7,20.1-23.88,29.88-6.6,7.9-11.25,17.11-17.36,25.31a5.54,5.54,0,0,0-2.22-4.74,4.62,4.62,0,0,0-4.56-.7c6.53-7.94,13.5-15.53,19.79-23.67a.38.38,0,0,0,.38.24c1.49,0,2.94-.2,4.43-.37a3.2,3.2,0,0,1-1.9,2.66c-1.08.61-2.18,1.18-3.31,1.69a16,16,0,0,0-5.12,3.42.37.37,0,0,0,.24.59c.91,0,1.82,0,2.73,0,3.19,0-.4,1.17-1.19,1.51a35.22,35.22,0,0,0-6.56,3.27.37.37,0,0,0,.17.65,5.51,5.51,0,0,0,2.32.27c.89-.11,5.17-1.53,3.07.18-2.58,2.1-6.57,2.16-9.43,3.89a.37.37,0,0,0,.18.66,15.49,15.49,0,0,0,3.19.24c1,0,3-.38.75.57-2.13.89-4.55,1.08-6.71,2a.37.37,0,0,0,0,.68,6.32,6.32,0,0,0,2.51.54c2.7,0,3.1-.23.18.16a.37.37,0,0,0-.17.65,4.87,4.87,0,0,0,2.3,1.15c.44.15.73-.53.28-.68-2.7-.9,1.07-1,2.17-1.33a.37.37,0,0,0-.09-.7c-1.77-.17-9.16.45-3-1a17.53,17.53,0,0,0,5.47-2.12c.35-.21.05-.65-.26-.65-.56,0-7,.6-4.38-.56a36,36,0,0,1,3.81-1.24,10.21,10.21,0,0,0,5.36-3.38.37.37,0,0,0-.33-.59c-1.23.21-2.46.46-3.68.69-5.23,1-.77-1,.48-1.57a47.75,47.75,0,0,0,6.35-3c.29-.19.11-.59-.17-.66-.81-.17-5.12.1-3.41-1.23s3.75-2,5.53-2.87a8.83,8.83,0,0,0,4.33-4.15c.13-.27-.13-.51-.39-.5-3.6.07-6.69.82-1.26-1.67,2.37-1.09,4.67-1.82,6.67-3.54.22-.18.18-.64-.17-.65l-2.78-.08c-3.83-.09,1.18-1.73,1.57-1.88a22.61,22.61,0,0,0,6.82-3.63.36.36,0,0,0-.26-.65c-1.8.27-6.31.81-2.07-1a42,42,0,0,0,5.9-2.92.37.37,0,0,0-.17-.66c-1.35,0-2.7,0-4.06-.11.07,0,3-1.8,3.45-2a11.85,11.85,0,0,0,4.63-3c.28-.29-.11-.66-.42-.56-4.09,1.3-2.43-.42-.62-1.25,1.5-.69,3-1.32,4.55-2a.37.37,0,0,0-.09-.7,8.21,8.21,0,0,0-2.51-.33c-3-.16-.14-.94.93-1.38A18.67,18.67,0,0,0,299,68a.37.37,0,0,0-.18-.65c-1,0-2.08-.08-3.12-.14a7.74,7.74,0,0,1,3-1.78A19.13,19.13,0,0,0,302.9,63a.37.37,0,0,0-.17-.65c-1.14-.12-5.68-.2-2.31-1.5,2.26-.87,4.41-1.35,6.35-2.85a.37.37,0,0,0-.17-.65,23.1,23.1,0,0,0-3.21-.31c-2.76-.17,1.83-1.53,1.88-1.55a15.05,15.05,0,0,0,6-3.32c.24-.25-.05-.61-.33-.59-1,.09-4.93-.1-5.07,0a13.84,13.84,0,0,1,4.36-1.84,11.7,11.7,0,0,0,5.21-3,.37.37,0,0,0-.25-.58c-1-.08-4.55-.66-5-.46,2.24-1,4.81-1.17,7.07-2.22a.37.37,0,0,0-.09-.7c-1.65-.36-5.63.16-2-1.05a32,32,0,0,0,6.07-2.61.36.36,0,0,0-.17-.65c-.14,0-6.12-.41-3.73-1.61,2-1,4.3-1.39,6.32-2.52.24-.13.36-.58,0-.68-1.55-.42-8.39-.52-3.35-1.65,2.31-.52,4.52-.55,6.32-2.24a.38.38,0,0,0-.18-.66c-1.13-.28-6.55-.19-3.05-1.48,2.46-.91,4.84-1.47,7.09-2.86.34-.21.06-.67-.26-.66-6.38.26.87-1.88,1.88-2.29a.37.37,0,0,0-.09-.7c-5.36-.6,1-1.76,2.47-2.37.31-.14.29-.69-.09-.7-5.86-.14,2-1.54,3.53-2.17a.37.37,0,0,0,.09-.63c-1.33-1.09-2.67-1.06-4.37-1.09A9.65,9.65,0,0,0,339.14,13c.31-.18.1-.58-.17-.65-1-.26-5.88,0-3.88-1.26a.37.37,0,0,0,.07-.51c-.61-.76-.42-.62-1.31-1-.43-.19-.71.49-.28.68l.27.66a.37.37,0,0,0-.09.7,6.82,6.82,0,0,0,2.5.89c3.68.91-2.61,1.45-3.72,1.7-.38.08-.45.71,0,.72s4.33.74,4,.89a24.3,24.3,0,0,1-5.65,1.38.37.37,0,0,0-.09.7,5.12,5.12,0,0,0,2.31.92c-1.44,0-3.42.89-5,1.16-.28.05-.48.47-.18.65a5.73,5.73,0,0,0,2.59,1.12c-1-.11-3.51,1.22-4.5,1.63a.36.36,0,0,0,0,.67c1.45.72,4.31.36,1.63,1.57-2.35,1-4.9,1.51-7.25,2.63a.37.37,0,0,0,0,.68,4.22,4.22,0,0,0,2.35.64c-.4,0,4.31-.42,2.07.79s-5.28.87-7.69,2.12a.37.37,0,0,0,0,.68c1,.55,4.33,1.74,5.24,1.23-2.42,1.35-5.16,1.57-7.44,3.26a.37.37,0,0,0,.08.63,10.19,10.19,0,0,0,4.81.84,12.34,12.34,0,0,1-3.21,1.49c-1.48.55-3,1-4.48,1.52a.37.37,0,0,0,.09.7c.7.16,3.55.66,3.61.63-2.23,1-4.8,1.17-7.06,2.22a.37.37,0,0,0,0,.68,4,4,0,0,0,2.36.62c2,.19,1.9,1,.06,1.74-2.37.94-4.59,1.42-6.58,3.07a.37.37,0,0,0,.17.66c1.39.07,7.15-.74,3,1.33-2.13,1.06-4.51,1.64-6.69,2.58a.37.37,0,0,0,0,.68c1.56.8,5.92.33,3.11,1.78-2.55,1.32-5.32,1.56-7.65,3.36a.36.36,0,0,0,.17.65s5,.31,3.25,1.27C298,65.16,296,65.87,294,67c-.3.18-.1.59.18.66,2.19.48,4.15.47.89,1.79A18.76,18.76,0,0,0,290.17,72c-.23.18-.17.64.17.65,1.78.05,6-.66,2.13,1a47.36,47.36,0,0,0-5.87,2.95.36.36,0,0,0,.08.62,6.43,6.43,0,0,0,4.18.09,29.38,29.38,0,0,0-8.13,4.29.37.37,0,0,0,.17.65,8.21,8.21,0,0,0,2.51.33c3.31.18-.68,1.15-1.62,1.57a41.59,41.59,0,0,0-5.91,2.92.37.37,0,0,0,.18.65c1.34.14,4.6.33,5.22-.19-2.64,2.22-6.79,2.91-9.82,4.56,5.9-8,11.62-16.06,17.45-24.07C298.24,58,305.73,48.19,312.4,37.67c6.78-10.71,13.6-21.59,23.19-30C337.72,9.28,339.74,11.15,341.73,13ZM268.54,98.62c1.57-2.05,3.12-4.12,4.66-6.19a.29.29,0,0,0,.22.35c3.12,1,6.83.12,1.45,2.48A27.17,27.17,0,0,0,268.54,98.62Zm-11.63-5.29Q268.34,78.19,280,63.23c15.61-20.14,31.39-40.14,47-60.3l0,0a24.63,24.63,0,0,1,6.17,3c-8.58,7.75-15,17.3-21.19,27-6.68,10.48-13.83,20.39-21.2,30.38-7.68,10.4-15.08,21-22.85,31.32-6.82,9.07-14.47,17.43-21.67,26.18a9,9,0,0,0-.64-2.06c-1.07-2.39-3-2.74-5-2.23C246.1,108.81,251.22,100.87,256.91,93.33Zm-31.24,65.13c.81-3,1.86-5.91,3-8.81a50.1,50.1,0,0,1,5.7,3.92A60.26,60.26,0,0,1,225.67,158.46Zm32.92-22c-7.86,4.23-14.57,10.26-21.81,15.42a1.83,1.83,0,0,0-.33-.36,56,56,0,0,0-6.77-4.6c.82-2.14,1.63-4.29,2.36-6.47,2.05-6.18,2.2-12.79,4.82-18.8a1.27,1.27,0,0,0,1-.33,11.34,11.34,0,0,1,2.67-1.89c4.7-2.48,2.59,4.88,2.26,5.6l-.16.29c-.14.17-.28.34-.41.52a1.39,1.39,0,0,0-.32.81c-.74,1.23-1.59,2.41-2.31,3.65l0,0h0c-.06.11-.14.22-.2.34-.81,1.48,1.51,2.69,2.5,1.44,2-2.5,4.56-5.56,7.87-6.16,4.4-.81,1.24,6,.71,7.09-.83,1.68-1.88,3.23-2.76,4.88-.79,1.49,1.52,2.71,2.51,1.45a29.23,29.23,0,0,1,3.13-3.55C254.44,134.73,260.23,132.64,258.59,136.45Zm68.62-91.81c-7.49,10.08-15.06,20.12-22.42,30.3-7.6,10.49-14.79,21.27-22.47,31.7-6.66,9-14,17.53-21,26.31a3.45,3.45,0,0,0-2.62-1.38,9.76,9.76,0,0,0-2.42,0c6.56-8.5,11.31-18.24,18.27-26.51,8.21-9.75,16.1-19.77,23.88-29.88,15.34-19.92,30.1-40.27,45.46-60.18.84.78,1.68,1.53,2.53,2.26C343.55,27.72,333.5,36.16,327.21,44.64Z"/><path class="cls-1" d="M273.25,130.92V261.74h4.88V124.93c-1,1.2-1.95,2.39-2.91,3.57Z"/><path class="cls-1" d="M59.28,83c-1.42,12-.38,26.48-6.14,37.42-2.31,4.37-6.61,8.64-11.81,8.74-6.55.12-8.93-8.46-9.78-13.45-1.83-10.83-.86-22.58-.11-33.45.4-5.85.72-11.7,1.27-17.54.21-2.22.42-4.6.85-6.92,1.2,0,2.4,0,3.59,0H49.23c.51,5.66,1.25,11.28,1.51,17,.36,7.95.16,15.89-1.71,23.67a15.19,15.19,0,0,1-1.54,4.09c-2.84,4.92-8.53-1.85-8.87-4.89a54,54,0,0,1,0-7.94c.24-7.44.26-15.57,2.31-22.79a1.41,1.41,0,0,0-2.72-.75C36.12,73.66,36.11,82,35.82,89.72c-.21,5.71-.85,14.6,6.36,16.61C50.67,108.71,52,99.06,52.9,93c1.48-10.16.85-20.61-.4-30.76-.15-1.2-.25-2.74-.4-4.43H240c8.95,0,23.76-2,30.16,5l3.11-4c-7.6-8.3-23.22-5.89-33.27-5.89H51.49c-.89-5-2.86-9.6-8-9.59-6.44,0-9.67,4.33-11.42,9.59h-3.7A18.86,18.86,0,0,0,9.88,69.21a12.82,12.82,0,0,0-5.69,3.43,7.06,7.06,0,0,0-1.85,7c1.09,3.15,4.32,4.73,7.29,5.68V88.2A12.64,12.64,0,0,0,3,91.1C.45,93.39.25,97.83,1.77,100.7a14.41,14.41,0,0,0,7.86,6.62v1.76a10,10,0,0,0-8.09,4.73c-3.77,6,2.85,10.08,8.09,11.29v7.12a11,11,0,0,0-7.07,4.07,7.05,7.05,0,0,0-1,7.62c1.37,3,5,4.23,8.12,4.82v.81a7,7,0,0,0-3.87,1.54c-5.18,4.44-1.66,10.49,3.87,12.41v1.27a9,9,0,0,0-7.26,3.35c-4.23,5.52,1.56,11.42,7.26,12.25V182c-3.27-.45-6.49.25-8.59,3-3.86,5.1,3.89,9.51,8.59,10.43v4.36a11.06,11.06,0,0,0-3.12.41c-2.29.67-4.85,2.27-5.22,4.83-.7,4.7,4.14,7.4,8.34,7.87v3.2a9.38,9.38,0,0,0-7.41,3.59c-3.76,5,3.1,8.39,7.41,9.68v4.1a8.58,8.58,0,0,0-2,.21c-2.43.58-5,1.89-5.56,4.56-.95,4.5,3.6,7.48,7.57,8.54v1.32a6.69,6.69,0,0,0-6.57,2.77c-3.34,4.52,1.39,9,5.63,10.82h5.82v-7.09c1.32.58,2.61,1.21,4,1.7,3,1.06,4.24-3.66,1.3-4.71-1.59-.57-3.4-1.43-5.27-2.16v-10c1,.38,2,.79,2.88,1.11,3,1,4.26-3.69,1.3-4.71-1.34-.46-2.74-1-4.18-1.49v-12.9c1.3.38,2.52.84,3.42,1.19,2.95,1.14,4.21-3.59,1.3-4.71a30.43,30.43,0,0,0-4.72-1.4v-11l2.34.78c3,1,4.27-3.72,1.3-4.71-1.17-.39-2.39-.78-3.64-1.12V189a11.17,11.17,0,0,1,1.26,1c2.3,2.15,5.76-1.3,3.46-3.45a18.14,18.14,0,0,0-4.72-3.1V170.32a23,23,0,0,1,2.84,1.13c2.83,1.35,5.31-2.86,2.47-4.22a28,28,0,0,0-5.31-1.9V155.08a11.22,11.22,0,0,1,2.3,1.17c2.6,1.8,5-2.43,2.46-4.21A15.09,15.09,0,0,0,14.51,150V137.42a10,10,0,0,1,2.84,1.47c2.53,1.88,5-2.36,2.47-4.22a13.49,13.49,0,0,0-5.31-2.33V114.42a20.48,20.48,0,0,1,3.66,1.68c2.73,1.57,5.19-2.65,2.46-4.22a22.39,22.39,0,0,0-6.12-2.41V92.89a27.84,27.84,0,0,1,4.24.66c3.06.72,4.36-4,1.3-4.71A34,34,0,0,0,14.51,88V75.49c0-.68,0-1.36.08-2A10.92,10.92,0,0,1,19,74.58c2.8,1.44,5.27-2.78,2.46-4.21a16.09,16.09,0,0,0-6.11-1.71c1.53-5.82,5.38-10.32,13-10.84.83,0,1.66-.07,2.49-.08-.45,2.41-.72,4.82-.94,6.95A308.37,308.37,0,0,0,28,104.06c.21,9.23.07,20.66,8.56,26.46,7.31,5,15.5-2.83,19-8.71,2.82-4.78,3.58-10.85,4.26-16.25,1-7.51,1.37-15.07,2.27-22.59C62.31,81.17,59.5,81.19,59.28,83ZM39.46,47.15c5.46-3.7,7.93,1.14,9,5.79H34.92A12.52,12.52,0,0,1,39.46,47.15ZM9.63,256.8c-1.84-.92-3.76-2.43-1.85-3.63a2.71,2.71,0,0,1,1.85-.25Zm0-15.07c-1.45-.61-3-1.59-2.8-2.42.14-.66,1.75-.83,2.8-.86Zm0-17.42a15.19,15.19,0,0,1-2-.86c-2-1-1.58-1,.29-2.08a4.46,4.46,0,0,1,1.75-.5Zm0-16.25a6.7,6.7,0,0,1-2-.64,4.86,4.86,0,0,1-1.28-1c-.11-.12-.21-.46-.27-.46.29-.85,2.29-1.2,3-1.25.16,0,.33,0,.5,0Zm0-17.51a11.16,11.16,0,0,1-2.81-1.23,7.08,7.08,0,0,1-1.49-1.23c-.42-.42-.27-.27-.19-.33a5.71,5.71,0,0,1,4.49-.84Zm0-15.25C7,174.52,4,172.23,7.18,170.25a5.27,5.27,0,0,1,2.45-.71Zm0-17.23c-1.52-1.09-2.57-2.86,0-3.54Zm0-14.31c-1.55-.38-3.09-1-3.79-2.09a1.78,1.78,0,0,1-.18-.93,2.81,2.81,0,0,1,.89-1.63,6.41,6.41,0,0,1,3.08-1.88Zm0-23.69a13.81,13.81,0,0,1-2.8-1.16c-1.84-1-1.75-2-.32-3.38a6,6,0,0,1,3.12-1.61Zm0-18.15c-3.1-2-6.35-6.5-1.52-8.33a11,11,0,0,1,1.52-.43Zm0-21.71A4.25,4.25,0,0,1,7,78.09c-.28-.83.46-1.79,1.22-2.52a7.06,7.06,0,0,1,1.46-1Z"/></g></g></svg>