<svg xmlns="http://www.w3.org/2000/svg" viewBox="0 0 95.08 90.58"><defs><style>.cls-1{fill:#3cdf00;}</style></defs><title>BrandScotty_Symbol</title><g id="Camada_2" data-name="Camada 2"><g id="Camada_1-2" data-name="Camada 1"><path class="cls-1" d="M55.92,90.58,38.8,90.51A30.5,30.5,0,0,1,12.51,75.2L4,60.34a30.53,30.53,0,0,1,.12-30.43l8.62-14.8A30.54,30.54,0,0,1,39.15,0L56.27.07a30.52,30.52,0,0,1,26.3,15.31l8.5,14.87A30.49,30.49,0,0,1,91,60.67l-8.62,14.8A30.51,30.51,0,0,1,55.92,90.58M39.12,9.64A20.86,20.86,0,0,0,21.07,20l-8.62,14.8a20.83,20.83,0,0,0-.08,20.79l8.5,14.86a20.85,20.85,0,0,0,18,10.47L56,80.94A20.85,20.85,0,0,0,74,70.62l8.62-14.8A20.88,20.88,0,0,0,82.71,35L74.2,20.17a20.84,20.84,0,0,0-18-10.47Z"/></g></g></svg>