<svg xmlns="http://www.w3.org/2000/svg" viewBox="0 0 376.91 137.86"><defs><style>.cls-1{fill:#fff;}.cls-2{fill:#3cdf00;}</style></defs><title>BrandScotty_White</title><g id="Camada_2" data-name="Camada 2"><g id="Camada_1-2" data-name="Camada 1"><polygon class="cls-1" points="91.16 115.8 91.12 136.93 86.47 136.92 86.51 115.79 78.99 115.78 79 111.91 98.69 111.95 98.68 115.82 91.16 115.8"/><polygon class="cls-1" points="104.51 136.95 104.56 111.96 120.35 111.99 120.34 115.86 109.24 115.84 109.23 122.35 119.94 122.37 119.93 126.24 109.22 126.22 109.21 133.1 120.31 133.12 120.3 136.99 104.51 136.95"/><path class="cls-1" d="M136.56,137.45c-3.28,0-5.69-1.14-7.25-3.38S127,128.63,127,124.5s.8-7.28,2.37-9.54,4-3.37,7.26-3.37a9.6,9.6,0,0,1,3.27.51,7.78,7.78,0,0,1,2.45,1.37,7.5,7.5,0,0,1,1.72,2.1,12.46,12.46,0,0,1,1.07,2.7l-4.3,1.21a15.93,15.93,0,0,0-.57-1.61,5,5,0,0,0-.81-1.31,3.18,3.18,0,0,0-1.2-.86,4.21,4.21,0,0,0-1.71-.31,3.69,3.69,0,0,0-3.5,1.86,10.35,10.35,0,0,0-1.06,5.1v4.32a10.34,10.34,0,0,0,1,5.1,3.69,3.69,0,0,0,3.49,1.88,4.45,4.45,0,0,0,1.72-.3,3.18,3.18,0,0,0,1.2-.86,5.12,5.12,0,0,0,.81-1.3,13.8,13.8,0,0,0,.58-1.61l4.29,1.22a11.54,11.54,0,0,1-1.08,2.7,7.33,7.33,0,0,1-1.72,2.1,8,8,0,0,1-2.46,1.36,9.87,9.87,0,0,1-3.27.49"/><polygon class="cls-1" points="163.3 126.33 156 126.31 155.98 137.06 151.29 137.04 151.34 112.05 156.03 112.06 156.01 122.44 163.31 122.46 163.33 112.07 168.02 112.08 167.97 137.08 163.28 137.07 163.3 126.33"/><polygon class="cls-1" points="179.3 119.16 178.94 119.16 178.91 137.1 174.9 137.09 174.95 112.1 180.71 112.11 187.23 130.06 187.59 130.06 187.63 112.12 191.63 112.13 191.59 137.12 185.82 137.11 179.3 119.16"/><path class="cls-1" d="M206.85,137.58a9.55,9.55,0,0,1-4.22-.88,7.82,7.82,0,0,1-2.95-2.53,11.52,11.52,0,0,1-1.71-4,23.94,23.94,0,0,1-.54-5.48,24.45,24.45,0,0,1,.56-5.46,11.43,11.43,0,0,1,1.73-4.06,7.66,7.66,0,0,1,3-2.52,9.56,9.56,0,0,1,4.23-.87c3.24,0,5.63,1.14,7.15,3.41s2.28,5.45,2.27,9.53-.77,7.26-2.31,9.53-3.92,3.39-7.17,3.38m0-3.79a4.32,4.32,0,0,0,2.12-.48,3.8,3.8,0,0,0,1.38-1.38,6.6,6.6,0,0,0,.75-2.21,16.46,16.46,0,0,0,.24-2.93v-4.28a11.17,11.17,0,0,0-1-5.11,4.19,4.19,0,0,0-7,0,11,11,0,0,0-1,5.1v4.31a11,11,0,0,0,1,5.11,3.6,3.6,0,0,0,3.48,1.88"/><polygon class="cls-1" points="222.59 137.18 222.64 112.19 227.33 112.2 227.29 133.33 238.35 133.35 238.35 137.21 222.59 137.18"/><path class="cls-1" d="M254.08,137.68a9.55,9.55,0,0,1-4.22-.89,7.67,7.67,0,0,1-3-2.53,11.16,11.16,0,0,1-1.71-4,24.48,24.48,0,0,1-.55-5.48,23.85,23.85,0,0,1,.57-5.46,11.5,11.5,0,0,1,1.72-4.06,7.74,7.74,0,0,1,3-2.52,9.62,9.62,0,0,1,4.23-.87q4.88,0,7.15,3.42c1.53,2.27,2.29,5.44,2.28,9.53s-.78,7.25-2.31,9.52-3.92,3.39-7.17,3.39m0-3.8a4.27,4.27,0,0,0,2.11-.48,3.66,3.66,0,0,0,1.38-1.38,6.83,6.83,0,0,0,.76-2.21,18.47,18.47,0,0,0,.24-2.93V122.6a11,11,0,0,0-1-5.11,4.2,4.2,0,0,0-7,0,11.1,11.1,0,0,0-1,5.1v4.32a11,11,0,0,0,1,5.1,3.59,3.59,0,0,0,3.49,1.88"/><path class="cls-1" d="M282.41,133.83h-.29a9,9,0,0,1-.79,1.46,4.88,4.88,0,0,1-1.15,1.25,5.27,5.27,0,0,1-1.59.86,6.44,6.44,0,0,1-2.1.32,6.29,6.29,0,0,1-5.74-3.36q-2-3.36-1.93-9.4,0-6.37,2.31-9.74t7.06-3.35a9.86,9.86,0,0,1,3.27.5,7.24,7.24,0,0,1,4.12,3.51,12.71,12.71,0,0,1,1.05,2.66l-4.3,1.21c-.17-.52-.35-1-.55-1.54a5,5,0,0,0-.79-1.31,3.63,3.63,0,0,0-1.16-.89,3.7,3.7,0,0,0-1.68-.35,3.49,3.49,0,0,0-3.34,1.86,10.83,10.83,0,0,0-1,5.1v4a17.88,17.88,0,0,0,.23,3,7.45,7.45,0,0,0,.76,2.32,4,4,0,0,0,1.4,1.49,4.15,4.15,0,0,0,2.15.53,3.8,3.8,0,0,0,3-1.2,4.58,4.58,0,0,0,1.05-3.06v-2h-4.55v-3.4l8.74,0,0,13.07H282.4Z"/><polygon class="cls-1" points="293.36 137.32 293.36 133.81 298.98 133.82 299.02 115.85 293.4 115.84 293.4 112.33 309.3 112.36 309.3 115.87 303.67 115.86 303.64 133.83 309.26 133.84 309.25 137.35 293.36 137.32"/><polygon class="cls-1" points="317.02 137.37 317.07 112.37 332.86 112.4 332.85 116.27 321.75 116.25 321.74 122.77 332.45 122.79 332.44 126.66 321.73 126.64 321.72 133.51 332.82 133.53 332.81 137.4 317.02 137.37"/><path class="cls-1" d="M348.47,137.86a12.58,12.58,0,0,1-5.49-1.11,10.47,10.47,0,0,1-3.7-2.92l2.84-2.93a9.16,9.16,0,0,0,3,2.39,8.06,8.06,0,0,0,3.49.77,4.93,4.93,0,0,0,3.29-1,3.48,3.48,0,0,0,1.15-2.82,2.9,2.9,0,0,0-.85-2.29,5.69,5.69,0,0,0-2.9-1.11l-2.65-.43a7.62,7.62,0,0,1-4.94-2.53,7.29,7.29,0,0,1-1.46-4.53,6.72,6.72,0,0,1,2.34-5.48,9.82,9.82,0,0,1,6.45-1.9,12.61,12.61,0,0,1,5.07.93,8.77,8.77,0,0,1,3.41,2.52l-2.76,2.93a7.45,7.45,0,0,0-2.4-1.88,7.19,7.19,0,0,0-3.29-.71q-4.08,0-4.09,3.39a2.8,2.8,0,0,0,.86,2.2,6,6,0,0,0,2.93,1.12l2.61.48a8.2,8.2,0,0,1,4.83,2.4A6.69,6.69,0,0,1,357.8,130a8.26,8.26,0,0,1-.61,3.2,6.87,6.87,0,0,1-1.8,2.5,7.88,7.88,0,0,1-2.92,1.62,12.83,12.83,0,0,1-4,.57"/><path class="cls-2" d="M44,71.31l-13.48,0A24,24,0,0,1,9.85,59.2L3.15,47.5a24,24,0,0,1,.1-23.95L10,11.9A24,24,0,0,1,30.83,0L44.31.05A24.05,24.05,0,0,1,65,12.11l6.69,11.7a24,24,0,0,1-.09,24L64.82,59.42A24,24,0,0,1,44,71.31M30.8,7.59a16.41,16.41,0,0,0-14.21,8.13L9.8,27.36a16.41,16.41,0,0,0-.06,16.37l6.69,11.7a16.42,16.42,0,0,0,14.15,8.24l13.48.06A16.45,16.45,0,0,0,58.27,55.6L65.05,44a16.39,16.39,0,0,0,.06-16.37l-6.69-11.7A16.4,16.4,0,0,0,44.28,7.64Z"/><path class="cls-1" d="M113.23,96.15a14.28,14.28,0,0,0,3.93-5.4,18.3,18.3,0,0,0,1.34-7,15.12,15.12,0,0,0-3.39-10q-3.42-4.11-10.9-5.49l-5.89-1.06q-5.19-.91-7.21-2.88a7.2,7.2,0,0,1-2-5.43,7.56,7.56,0,0,1,2.62-6.21q2.59-2.12,7.54-2.1A16,16,0,0,1,107,52.31a18.69,18.69,0,0,1,5.45,4.53l5.6-5.56a19.13,19.13,0,0,0-7.51-5.91,27.47,27.47,0,0,0-11.27-2.13q-8.94,0-14.05,4t-5.15,12a18.4,18.4,0,0,0,.74,5.3,12.91,12.91,0,0,0,2.42,4.55,14.5,14.5,0,0,0,4.36,3.52,20.89,20.89,0,0,0,6.69,2.13l6.06,1c3.34.61,5.7,1.56,7.08,2.88a7.32,7.32,0,0,1,2,5.59,8.58,8.58,0,0,1-2.86,6.89c-1.89,1.59-4.59,2.39-8.1,2.37a18,18,0,0,1-8.12-1.82A21.42,21.42,0,0,1,83.66,86L77.9,91.46A23.23,23.23,0,0,0,86,98.21a26.46,26.46,0,0,0,12.19,2.57,27.45,27.45,0,0,0,8.65-1.2,18.25,18.25,0,0,0,6.39-3.43"/><path class="cls-1" d="M142.07,55.26q2.73-4.51,8.62-4.49a10.15,10.15,0,0,1,4,.73,9.48,9.48,0,0,1,2.82,1.93,10.46,10.46,0,0,1,2,2.87,31,31,0,0,1,1.42,3.6L169,57.22a27.55,27.55,0,0,0-2.41-5.38A17.19,17.19,0,0,0,163,47.47a15.91,15.91,0,0,0-5.13-2.94,21,21,0,0,0-7-1.09q-10.61,0-15.77,7.43t-5.22,21.26q-.06,13.8,5.05,21.3T150.58,101a21.13,21.13,0,0,0,7.06-1,16,16,0,0,0,5.15-2.9,17.16,17.16,0,0,0,3.64-4.34,28.13,28.13,0,0,0,2.46-5.36l-8-2.74a35.6,35.6,0,0,1-1.45,3.58,10.34,10.34,0,0,1-2,2.86,9,9,0,0,1-2.83,1.9,9.9,9.9,0,0,1-4,.7q-5.91,0-8.59-4.55t-2.67-12.21l0-9.44q0-7.68,2.76-12.19"/><path class="cls-1" d="M216.08,51.26a16.81,16.81,0,0,0-6.36-5.64,22.27,22.27,0,0,0-18.25-.07,16.94,16.94,0,0,0-6.4,5.59,25.81,25.81,0,0,0-3.74,9,55.8,55.8,0,0,0-1.24,12.15,56.25,56.25,0,0,0,1.14,12.2,25.79,25.79,0,0,0,3.68,9,16.78,16.78,0,0,0,6.35,5.64,22.33,22.33,0,0,0,18.25.08,16.92,16.92,0,0,0,6.41-5.6,26,26,0,0,0,3.74-9,56.33,56.33,0,0,0,1.24-12.19,56.27,56.27,0,0,0-1.15-12.16,25.82,25.82,0,0,0-3.67-9.07M211.4,77.09c0,5.17-.86,9.27-2.52,12.27s-4.49,4.5-8.47,4.49-6.8-1.53-8.43-4.55-2.45-7.09-2.43-12.22l0-9.44q0-7.68,2.52-12.19T200.58,51q6,0,8.43,4.55t2.42,12.21Z"/><polygon class="cls-1" points="255.97 100.44 256.15 52.3 273.61 52.37 273.64 44.87 229.8 44.7 229.77 52.2 247.23 52.26 247.04 100.41 255.97 100.44"/><polygon class="cls-1" points="307.08 100.64 307.27 52.5 324.73 52.56 324.76 45.07 280.92 44.9 280.89 52.39 298.34 52.46 298.15 100.61 307.08 100.64"/><polygon class="cls-1" points="349.27 100.81 358.2 100.84 358.28 79.88 376.91 45.27 367.19 45.24 360.04 59.08 354.17 70.93 353.69 70.93 348 59.03 340.96 45.13 331 45.1 349.35 79.84 349.27 100.81"/></g></g></svg>