<svg xmlns="http://www.w3.org/2000/svg" viewBox="0 0 210.13 96.97"><defs><style>.cls-1{fill:#3cdf00;}</style></defs><title>BrandScotty_Diaries</title><g id="Camada_2" data-name="Camada 2"><g id="Camada_1-2" data-name="Camada 1"><path d="M60,59.4a14,14,0,0,1-7.12-1.62,14.7,14.7,0,0,1-4.57-4.11l2.82-2.31a13.66,13.66,0,0,0,4,3.51,10.31,10.31,0,0,0,5,1.15,7.94,7.94,0,0,0,5.36-1.6,5.67,5.67,0,0,0,1.85-4.51A4.89,4.89,0,0,0,66,46.26a8.81,8.81,0,0,0-4.67-1.86l-3.6-.6a13.68,13.68,0,0,1-4-1.25,8.2,8.2,0,0,1-2.56-2A7.33,7.33,0,0,1,49.8,38,10.6,10.6,0,0,1,49.39,35,8,8,0,0,1,52.3,28.3,12.47,12.47,0,0,1,60.16,26a14.8,14.8,0,0,1,6.54,1.31A11,11,0,0,1,71,31l-2.73,2.36A11.08,11.08,0,0,0,65,30.51a9.63,9.63,0,0,0-4.9-1.11,8,8,0,0,0-5,1.38,4.93,4.93,0,0,0-1.75,4.13,4.81,4.81,0,0,0,1.31,3.52q1.32,1.35,4.74,2l3.47.6a14.28,14.28,0,0,1,4,1.25,8.58,8.58,0,0,1,2.61,2,7,7,0,0,1,1.41,2.59,10.68,10.68,0,0,1,.42,3,8.8,8.8,0,0,1-2.94,7Q65.38,59.4,60,59.4"/><path d="M88.63,59.4a11.14,11.14,0,0,1-4.6-.9A9.51,9.51,0,0,1,80.63,56a10.89,10.89,0,0,1-2.1-3.93,17.19,17.19,0,0,1-.72-5.13,16.86,16.86,0,0,1,.74-5.13,11.27,11.27,0,0,1,2.13-3.95,9.23,9.23,0,0,1,3.37-2.52,11,11,0,0,1,4.53-.88A9.59,9.59,0,0,1,94.22,36a8.93,8.93,0,0,1,3.19,4l-3,1.57a5.53,5.53,0,0,0-2.15-2.86,6.46,6.46,0,0,0-3.72-1,7.52,7.52,0,0,0-2.89.53,6.12,6.12,0,0,0-2.15,1.5A6.58,6.58,0,0,0,82.22,42a9.46,9.46,0,0,0-.43,2.92V49a9.35,9.35,0,0,0,.43,2.91,6.54,6.54,0,0,0,1.32,2.32,6.11,6.11,0,0,0,2.17,1.5,7.85,7.85,0,0,0,3,.53,6.75,6.75,0,0,0,4-1.11,7.71,7.71,0,0,0,2.49-3.05l2.64,1.8a9.49,9.49,0,0,1-3.31,4,10,10,0,0,1-5.84,1.57"/><path d="M115.52,59.4a11.05,11.05,0,0,1-4.5-.88A9.29,9.29,0,0,1,107.6,56a11.14,11.14,0,0,1-2.15-3.93,18.22,18.22,0,0,1,0-10.28,11.15,11.15,0,0,1,2.15-3.95A9.41,9.41,0,0,1,111,35.32a12,12,0,0,1,9,0,9.41,9.41,0,0,1,3.42,2.52,11.15,11.15,0,0,1,2.15,3.95,18.22,18.22,0,0,1,0,10.28A11.14,11.14,0,0,1,123.45,56,9.29,9.29,0,0,1,120,58.52a11.07,11.07,0,0,1-4.51.88m0-3.19a6.88,6.88,0,0,0,5-1.85q1.89-1.84,1.89-5.73V45.21q0-3.89-1.89-5.73a7.67,7.67,0,0,0-10,0q-1.89,1.85-1.89,5.73v3.42q0,3.88,1.89,5.73a6.85,6.85,0,0,0,5,1.85"/><path d="M144.41,58.84a4.91,4.91,0,0,1-4-1.52,5.88,5.88,0,0,1-1.27-3.92V38.18h-7.95V35h5.92a2.34,2.34,0,0,0,1.68-.48,2.32,2.32,0,0,0,.49-1.69V26.58h3.56V35H153.7v3.19H142.84V55.65H153.7v3.19Z"/><path d="M172.14,58.84a4.91,4.91,0,0,1-4-1.52,5.88,5.88,0,0,1-1.27-3.92V38.18h-8V35h5.92a2.34,2.34,0,0,0,1.68-.48,2.32,2.32,0,0,0,.49-1.69V26.58h3.56V35h10.86v3.19H170.57V55.65h10.86v3.19Z"/><path d="M206.43,35h3.7L198.3,64.07a10.57,10.57,0,0,1-.93,1.78,4.73,4.73,0,0,1-1.2,1.24,5.05,5.05,0,0,1-1.66.74,9.19,9.19,0,0,1-2.31.26h-3.52V64.9h5.55l2.68-6.52L187.3,35h3.79l4,10L198.67,54h.18L202.41,45Z"/><path d="M81.85,66.19a2.49,2.49,0,0,0,1.69-.48,2.27,2.27,0,0,0,.67-1.28c0-.15.06-.33.09-.53a3.49,3.49,0,0,0,0-.53,1.41,1.41,0,0,0-.46-1,2.37,2.37,0,0,0-1.66-.46,2.44,2.44,0,0,0-1.69.49,2.18,2.18,0,0,0-.67,1.27c0,.15-.06.33-.09.53a3.74,3.74,0,0,0,0,.53,1.45,1.45,0,0,0,.46,1,2.35,2.35,0,0,0,1.67.46"/><path d="M107.68,76.73h-.13A6.62,6.62,0,0,0,105,73.26,8.16,8.16,0,0,0,100.29,72a8.83,8.83,0,0,0-5,1.41,11.83,11.83,0,0,0-3.49,3.68,17.23,17.23,0,0,0-2,5.06,23.83,23.83,0,0,0-.65,5l-.39-.46-10.4,8-.69-.28,4.2-21.81H70.28L72,62.22H69.42L67,76.73h-.13a6.62,6.62,0,0,0-2.57-3.47A8.16,8.16,0,0,0,59.62,72a8.83,8.83,0,0,0-5,1.41,11.83,11.83,0,0,0-3.49,3.68,17.23,17.23,0,0,0-2,5.06,23.83,23.83,0,0,0-.67,5.61,10.46,10.46,0,0,0,2,6.77A6.91,6.91,0,0,0,56.06,97a7.62,7.62,0,0,0,5.11-1.66,14,14,0,0,0,3.35-4.39h.14l-.93,5.5h2.59l3.6-21.63H78.8L75.29,92.9c-.07.44-.12.78-.17,1a5,5,0,0,0-.07.72,2.25,2.25,0,0,0,.65,1.66,2.51,2.51,0,0,0,1.85.65,3.15,3.15,0,0,0,1.06-.18,6.82,6.82,0,0,0,1.16-.6c.43-.28.92-.64,1.46-1.07s1.2-1,2-1.57L89.11,89A9.61,9.61,0,0,0,91,94.54,6.91,6.91,0,0,0,96.73,97a7.62,7.62,0,0,0,5.11-1.66,14,14,0,0,0,3.35-4.39h.14l-.93,5.5H107l4-23.85h-2.59ZM66.46,80.24l-1,6a10,10,0,0,1-1.22,3.49,14,14,0,0,1-2,2.66,7.76,7.76,0,0,1-2.58,1.76,7.67,7.67,0,0,1-2.87.55,5.16,5.16,0,0,1-4.41-1.87A7.74,7.74,0,0,1,51,88c0-.33,0-.68,0-1s.08-.75.14-1.18l.51-2.92a14,14,0,0,1,1-3.41,9.41,9.41,0,0,1,1.78-2.73A7.4,7.4,0,0,1,57,75a8.1,8.1,0,0,1,3.26-.63,8.49,8.49,0,0,1,2.93.47,5.42,5.42,0,0,1,2.06,1.27A4.37,4.37,0,0,1,66.34,78a5.48,5.48,0,0,1,.12,2.29m40.67,0-1,6a10,10,0,0,1-1.22,3.49,14,14,0,0,1-2,2.66,7.76,7.76,0,0,1-2.58,1.76,7.67,7.67,0,0,1-2.87.55,5.16,5.16,0,0,1-4.41-1.87A7.74,7.74,0,0,1,91.65,88c0-.33,0-.68,0-1s.08-.75.14-1.18l.51-2.92a14,14,0,0,1,1-3.41,9.17,9.17,0,0,1,1.78-2.71,7.81,7.81,0,0,1,5.8-2.43,8.49,8.49,0,0,1,2.93.47,5.42,5.42,0,0,1,2.06,1.27A4.37,4.37,0,0,1,107,78a5.48,5.48,0,0,1,.12,2.29"/><path d="M142.85,66.19a2.47,2.47,0,0,0,1.69-.48,2.16,2.16,0,0,0,.67-1.28c0-.15.06-.33.09-.53a3.61,3.61,0,0,0,0-.53,1.41,1.41,0,0,0-.46-1,3.19,3.19,0,0,0-3.35,0,2.13,2.13,0,0,0-.67,1.27c0,.15-.06.33-.1.53a3.59,3.59,0,0,0,0,.53,1.41,1.41,0,0,0,.46,1,2.32,2.32,0,0,0,1.66.46"/><path d="M168.6,88.93a15.06,15.06,0,0,1-3.75,4.39,7.66,7.66,0,0,1-4.71,1.43,7.78,7.78,0,0,1-3.28-.6,5.27,5.27,0,0,1-2.06-1.64,6.21,6.21,0,0,1-1.06-2.38,13.07,13.07,0,0,1-.3-2.86v-.42a5.53,5.53,0,0,1,0-.69,48.51,48.51,0,0,0,9.41-1,18.43,18.43,0,0,0,5.38-2,5.85,5.85,0,0,0,2.43-2.5,6.51,6.51,0,0,0,.58-2.54,5.33,5.33,0,0,0-2.15-4.55,9.29,9.29,0,0,0-5.66-1.6,11.89,11.89,0,0,0-5.16,1.11,12.14,12.14,0,0,0-4,3.1,14.45,14.45,0,0,0-2.61,4.67,17.63,17.63,0,0,0-.92,5.82q0,.65,0,1.23l-1.1-1.29-10.39,8-.7-.28,4.21-21.81H129.59a10,10,0,0,0-2.93.39,7.62,7.62,0,0,0-2.27,1.11,8.34,8.34,0,0,0-1.75,1.71A12.62,12.62,0,0,0,121.27,78H121l.92-5.45h-9.84l-.37,2.22h7.3L115.4,96.42H118l2.36-14a7.7,7.7,0,0,1,1.25-3.26,9.87,9.87,0,0,1,1.71-2A7.94,7.94,0,0,1,128.85,75a44.33,44.33,0,0,1,4.72-.17h6.23L136.29,92.9c-.06.44-.11.78-.16,1a4,4,0,0,0-.07.72,2.25,2.25,0,0,0,.65,1.66,2.46,2.46,0,0,0,1.85.65,3.15,3.15,0,0,0,1.06-.18,6.77,6.77,0,0,0,1.15-.6,17.58,17.58,0,0,0,1.46-1.07l2-1.57,6.6-5.08a10,10,0,0,0,2.27,5.94c1.58,1.71,3.84,2.56,6.8,2.56a10.53,10.53,0,0,0,6.1-1.71,15.36,15.36,0,0,0,4.48-5.17Zm-14.79-5.5A11.2,11.2,0,0,1,157,76.57a8.71,8.71,0,0,1,6.19-2.38c2,0,3.37.39,4.21,1.17a3.83,3.83,0,0,1,1.24,2.89,4.31,4.31,0,0,1-.53,2A4.85,4.85,0,0,1,166,82.16a16.58,16.58,0,0,1-4.55,1.41,51.11,51.11,0,0,1-7.74.69Z"/><path d="M188.45,84.75a7.43,7.43,0,0,0-2.18-1,16,16,0,0,0-2.47-.46l-3.46-.47a14.86,14.86,0,0,1-1.81-.36,4.82,4.82,0,0,1-1.43-.65,2.71,2.71,0,0,1-.92-1.09,3.66,3.66,0,0,1-.33-1.64,4.18,4.18,0,0,1,1.8-3.63,8.92,8.92,0,0,1,5.13-1.27,12.92,12.92,0,0,1,2.82.28,9.31,9.31,0,0,1,2.11.72,6.1,6.1,0,0,1,1.5,1,6.42,6.42,0,0,1,1,1.11L192,75.71a9.3,9.3,0,0,0-3.42-2.66,12.93,12.93,0,0,0-5.55-1,15.76,15.76,0,0,0-3.79.44,9.84,9.84,0,0,0-3.09,1.34,6.51,6.51,0,0,0-2.11,2.29,6.6,6.6,0,0,0-.76,3.24,5.54,5.54,0,0,0,.56,2.61,4.94,4.94,0,0,0,1.5,1.71,7.11,7.11,0,0,0,2.19,1,19.48,19.48,0,0,0,2.59.54l3.51.41a7.45,7.45,0,0,1,3.19,1,3,3,0,0,1,1.2,2.73,4.56,4.56,0,0,1-2.05,4,9.87,9.87,0,0,1-5.57,1.38,11.79,11.79,0,0,1-5-.94A8.93,8.93,0,0,1,172,90.87L170,92.4Q173.21,97,180.24,97a16,16,0,0,0,4.16-.51,9.63,9.63,0,0,0,3.28-1.52,6.91,6.91,0,0,0,2.92-5.83,5.42,5.42,0,0,0-.6-2.68,4.93,4.93,0,0,0-1.55-1.68"/><path class="cls-1" d="M26.54,43l-8.12,0A14.48,14.48,0,0,1,5.94,35.69l-4-7A14.5,14.5,0,0,1,2,14.19l4.09-7A14.49,14.49,0,0,1,18.58,0l8.13,0A14.5,14.5,0,0,1,39.19,7.3l4,7.06a14.46,14.46,0,0,1,0,14.44l-4.09,7A14.49,14.49,0,0,1,26.54,43m-8-38.42A9.91,9.91,0,0,0,10,9.48l-4.09,7a9.91,9.91,0,0,0,0,9.87l4,7.05a9.9,9.9,0,0,0,8.52,5l8.13,0a9.93,9.93,0,0,0,8.57-4.9l4.09-7a9.91,9.91,0,0,0,0-9.87l-4-7.06a9.89,9.89,0,0,0-8.53-5Z"/></g></g></svg>