<?xml version="1.0" encoding="utf-8"?>
<!-- Generator: Adobe Illustrator 25.0.1, SVG Export Plug-In . SVG Version: 6.00 Build 0)  -->
<svg version="1.1" id="Layer_1" xmlns="http://www.w3.org/2000/svg" xmlns:xlink="http://www.w3.org/1999/xlink" x="0px" y="0px"
	 viewBox="0 0 28 25" style="enable-background:new 0 0 28 25;" xml:space="preserve">
<style type="text/css">
	.st0{fill:none;stroke:#000000;stroke-width:1.5;stroke-linecap:round;stroke-linejoin:round;}
</style>
<g id="Group_140" transform="translate(471 -6773)">
	<g id="Rectangle_819" transform="translate(-471 6789)">
		<path class="st0" d="M7,0.8L7,0.8c3.5,0,6.2,2.8,6.2,6.2v0.4c0,0.5-0.4,0.8-0.8,0.8l0,0H1.6c-0.5,0-0.8-0.4-0.8-0.8V7
			C0.8,3.5,3.5,0.8,7,0.8z"/>
	</g>
	<g id="Rectangle_821" transform="translate(-456 6789)">
		<path class="st0" d="M6.5,0.8L6.5,0.8c3.2,0,5.8,2.6,5.8,5.8v1c0,0.4-0.3,0.8-0.8,0.8l0,0H1.5c-0.4,0-0.8-0.3-0.8-0.8v-1
			C0.8,3.3,3.3,0.8,6.5,0.8z"/>
	</g>
	<g id="Rectangle_820" transform="translate(-469 6787) rotate(-90)">
		<path class="st0" d="M4.5,0.8h5c2.1,0,3.8,1.7,3.8,3.8l0,0c0,2.1-1.7,3.8-3.8,3.8h-5c-2.1,0-3.8-1.7-3.8-3.8l0,0
			C0.8,2.4,2.4,0.8,4.5,0.8z"/>
	</g>
	<g id="Rectangle_822" transform="translate(-454 6787) rotate(-90)">
		<path class="st0" d="M4.5,0.8h5c2.1,0,3.8,1.7,3.8,3.8l0,0c0,2.1-1.7,3.8-3.8,3.8h-5c-2.1,0-3.8-1.7-3.8-3.8l0,0
			C0.8,2.4,2.4,0.8,4.5,0.8z"/>
	</g>
</g>
</svg>
