<svg xmlns="http://www.w3.org/2000/svg" width="100.851" height="100.85" viewBox="0 0 100.851 100.85">
  <g id="Group_72" data-name="Group 72" transform="translate(-100 -3821)">
    <path id="Path_13583" data-name="Path 13583" d="M179.16,252.809H89.309a5.506,5.506,0,0,0-5.5,5.5v89.85a5.507,5.507,0,0,0,5.5,5.5H179.16a5.506,5.506,0,0,0,5.5-5.5v-89.85A5.506,5.506,0,0,0,179.16,252.809Zm4.5,95.35a4.5,4.5,0,0,1-4.5,4.5H89.309a4.5,4.5,0,0,1-4.5-4.5v-89.85a4.5,4.5,0,0,1,4.5-4.5H179.16a4.5,4.5,0,0,1,4.5,4.5Z" transform="translate(16.191 3568.191)" fill="#3cdf00"/>
    <rect id="Rectangle_801" data-name="Rectangle 801" width="89" height="1" transform="translate(105.926 3834.463)" fill="#3cdf00"/>
    <path id="Path_13584" data-name="Path 13584" d="M91.735,262.41a2.5,2.5,0,1,0-2.5-2.5A2.5,2.5,0,0,0,91.735,262.41Zm0-4a1.5,1.5,0,1,1-1.5,1.5A1.5,1.5,0,0,1,91.735,258.41Z" transform="translate(16.191 3568.191)" fill="#3cdf00"/>
    <path id="Path_13585" data-name="Path 13585" d="M99.735,262.41a2.5,2.5,0,1,0-2.5-2.5A2.5,2.5,0,0,0,99.735,262.41Zm0-4a1.5,1.5,0,1,1-1.5,1.5A1.5,1.5,0,0,1,99.735,258.41Z" transform="translate(16.191 3568.191)" fill="#3cdf00"/>
    <path id="Path_13586" data-name="Path 13586" d="M107.735,262.41a2.5,2.5,0,1,0-2.5-2.5A2.5,2.5,0,0,0,107.735,262.41Zm0-4a1.5,1.5,0,1,1-1.5,1.5A1.5,1.5,0,0,1,107.735,258.41Z" transform="translate(16.191 3568.191)" fill="#3cdf00"/>
    <path id="Path_13587" data-name="Path 13587" d="M144.235,305.734h-20a2.5,2.5,0,0,0-2.5,2.5v36.5a2.5,2.5,0,0,0,2.5,2.5h20a2.5,2.5,0,0,0,2.5-2.5v-36.5A2.5,2.5,0,0,0,144.235,305.734Zm-20,1h20a1.5,1.5,0,0,1,1.5,1.5v25.482h-23V308.234A1.5,1.5,0,0,1,124.235,306.734Zm20,39.5h-20a1.5,1.5,0,0,1-1.5-1.5V334.716h23v10.018A1.5,1.5,0,0,1,144.235,346.234Z" transform="translate(16.191 3568.191)" fill="#3cdf00"/>
    <path id="Path_13588" data-name="Path 13588" d="M112.235,305.734h-20a2.5,2.5,0,0,0-2.5,2.5v36.5a2.5,2.5,0,0,0,2.5,2.5h20a2.5,2.5,0,0,0,2.5-2.5v-36.5A2.5,2.5,0,0,0,112.235,305.734Zm-20,1h20a1.5,1.5,0,0,1,1.5,1.5v25.482h-23V308.234A1.5,1.5,0,0,1,92.235,306.734Zm20,39.5h-20a1.5,1.5,0,0,1-1.5-1.5V334.716h23v10.018A1.5,1.5,0,0,1,112.235,346.234Z" transform="translate(16.191 3568.191)" fill="#3cdf00"/>
    <path id="Path_13589" data-name="Path 13589" d="M176.235,305.734h-20a2.5,2.5,0,0,0-2.5,2.5v36.5a2.5,2.5,0,0,0,2.5,2.5h20a2.5,2.5,0,0,0,2.5-2.5v-36.5A2.5,2.5,0,0,0,176.235,305.734Zm-20,1h20a1.5,1.5,0,0,1,1.5,1.5v25.482h-23V308.234A1.5,1.5,0,0,1,156.235,306.734Zm20,39.5h-20a1.5,1.5,0,0,1-1.5-1.5V334.716h23v10.018A1.5,1.5,0,0,1,176.235,346.234Z" transform="translate(16.191 3568.191)" fill="#3cdf00"/>
    <path id="Path_13590" data-name="Path 13590" d="M176.776,272.234H92.193a2.461,2.461,0,0,0-2.458,2.459v23.083a2.461,2.461,0,0,0,2.458,2.458h84.583a2.461,2.461,0,0,0,2.459-2.458V274.693A2.462,2.462,0,0,0,176.776,272.234Zm1.459,25.542a1.46,1.46,0,0,1-1.459,1.458H92.193a1.46,1.46,0,0,1-1.458-1.458V274.693a1.46,1.46,0,0,1,1.458-1.459h84.583a1.461,1.461,0,0,1,1.459,1.459Z" transform="translate(16.191 3568.191)" fill="#3cdf00"/>
    <path id="Path_13591" data-name="Path 13591" d="M108.984,340.152l-.19-.031v-1.444a1.438,1.438,0,0,1,.9.509l.6-.616a1.936,1.936,0,0,0-.6-.494,2.408,2.408,0,0,0-.848-.251v-.783H108.1v.791a1.857,1.857,0,0,0-1.136.478,1.4,1.4,0,0,0-.4,1.042,1.679,1.679,0,0,0,.08.525,1.277,1.277,0,0,0,.251.441,1.421,1.421,0,0,0,.441.335,2.348,2.348,0,0,0,.643.205l.175.03v1.575a1.807,1.807,0,0,1-1.156-.639l-.6.616a2.049,2.049,0,0,0,.688.582,2.572,2.572,0,0,0,1.015.269v.776h.746v-.806a1.9,1.9,0,0,0,1.152-.544,1.519,1.519,0,0,0,.4-1.076,1.428,1.428,0,0,0-.335-.962A1.793,1.793,0,0,0,108.984,340.152Zm-.829-.16a1.049,1.049,0,0,1-.5-.236.582.582,0,0,1-.152-.433q0-.578.654-.669ZM109.3,342.2a.851.851,0,0,1-.509.251v-1.445a1.052,1.052,0,0,1,.517.232.616.616,0,0,1,.159.46A.73.73,0,0,1,109.3,342.2Z" transform="translate(16.191 3568.191)" fill="#3cdf00"/>
    <path id="Path_13592" data-name="Path 13592" d="M141.984,340.152l-.19-.031v-1.444a1.438,1.438,0,0,1,.9.509l.6-.616a1.936,1.936,0,0,0-.6-.494,2.408,2.408,0,0,0-.848-.251v-.783H141.1v.791a1.857,1.857,0,0,0-1.136.478,1.4,1.4,0,0,0-.4,1.042,1.679,1.679,0,0,0,.08.525,1.277,1.277,0,0,0,.251.441,1.421,1.421,0,0,0,.441.335,2.348,2.348,0,0,0,.643.205l.175.03v1.575a1.807,1.807,0,0,1-1.156-.639l-.6.616a2.05,2.05,0,0,0,.688.582,2.572,2.572,0,0,0,1.015.269v.776h.746v-.806a1.9,1.9,0,0,0,1.152-.544,1.519,1.519,0,0,0,.4-1.076,1.428,1.428,0,0,0-.335-.962A1.793,1.793,0,0,0,141.984,340.152Zm-.829-.16a1.049,1.049,0,0,1-.5-.236.582.582,0,0,1-.152-.433q0-.578.654-.669ZM142.3,342.2a.851.851,0,0,1-.509.251v-1.445a1.052,1.052,0,0,1,.517.232.616.616,0,0,1,.159.46A.73.73,0,0,1,142.3,342.2Z" transform="translate(16.191 3568.191)" fill="#3cdf00"/>
    <path id="Path_13593" data-name="Path 13593" d="M173.984,340.152l-.19-.031v-1.444a1.438,1.438,0,0,1,.9.509l.6-.616a1.936,1.936,0,0,0-.6-.494,2.408,2.408,0,0,0-.848-.251v-.783H173.1v.791a1.857,1.857,0,0,0-1.136.478,1.4,1.4,0,0,0-.4,1.042,1.679,1.679,0,0,0,.08.525,1.277,1.277,0,0,0,.251.441,1.421,1.421,0,0,0,.441.335,2.348,2.348,0,0,0,.643.205l.175.03v1.575a1.807,1.807,0,0,1-1.156-.639l-.6.616a2.05,2.05,0,0,0,.688.582,2.572,2.572,0,0,0,1.015.269v.776h.746v-.806a1.9,1.9,0,0,0,1.152-.544,1.519,1.519,0,0,0,.4-1.076,1.428,1.428,0,0,0-.335-.962A1.793,1.793,0,0,0,173.984,340.152Zm-.829-.16a1.049,1.049,0,0,1-.5-.236.582.582,0,0,1-.152-.433q0-.578.654-.669ZM174.3,342.2a.851.851,0,0,1-.509.251v-1.445a1.052,1.052,0,0,1,.517.232.616.616,0,0,1,.159.46A.73.73,0,0,1,174.3,342.2Z" transform="translate(16.191 3568.191)" fill="#3cdf00"/>
    <path id="Path_13594" data-name="Path 13594" d="M173.984,292.152l-.19-.031v-1.444a1.438,1.438,0,0,1,.9.509l.6-.616a1.936,1.936,0,0,0-.6-.494,2.408,2.408,0,0,0-.848-.251v-.783H173.1v.791a1.857,1.857,0,0,0-1.136.478,1.4,1.4,0,0,0-.4,1.042,1.679,1.679,0,0,0,.08.525,1.277,1.277,0,0,0,.251.441,1.421,1.421,0,0,0,.441.335,2.348,2.348,0,0,0,.643.205l.175.03v1.575a1.807,1.807,0,0,1-1.156-.639l-.6.616a2.05,2.05,0,0,0,.688.582,2.572,2.572,0,0,0,1.015.269v.776h.746v-.806a1.9,1.9,0,0,0,1.152-.544,1.519,1.519,0,0,0,.4-1.076,1.428,1.428,0,0,0-.335-.962A1.793,1.793,0,0,0,173.984,292.152Zm-.829-.16a1.049,1.049,0,0,1-.5-.236.582.582,0,0,1-.152-.433q0-.578.654-.669ZM174.3,294.2a.851.851,0,0,1-.509.251v-1.445a1.052,1.052,0,0,1,.517.232.616.616,0,0,1,.159.46A.73.73,0,0,1,174.3,294.2Z" transform="translate(16.191 3568.191)" fill="#3cdf00"/>
    <path id="Path_13595" data-name="Path 13595" d="M174.615,262.815a.676.676,0,1,0-.674.674A.669.669,0,0,0,174.615,262.815Z" transform="translate(16.191 3568.191)" fill="#3cdf00"/>
    <path id="Path_13596" data-name="Path 13596" d="M177.809,262.815a.676.676,0,1,0-.673.674A.668.668,0,0,0,177.809,262.815Z" transform="translate(16.191 3568.191)" fill="#3cdf00"/>
    <path id="Path_13597" data-name="Path 13597" d="M171.167,257.2h.979l.518,3.533a.93.93,0,0,0,.971.916h4.085a.385.385,0,1,0,0-.77h-3.977a.221.221,0,0,1-.219-.22l-.053-.361h4.305a.926.926,0,0,0,.972-.92l.238-1.623a1.16,1.16,0,0,0,.019-.164.425.425,0,0,0-.484-.432h-5.5l-.045-.294c-.048-.35-.209-.533-.648-.533h-1.165a.434.434,0,0,0,0,.868Zm6.918.726-.186,1.389c-.023.134-.09.212-.216.212l-4.319,0-.231-1.605Z" transform="translate(16.191 3568.191)" fill="#3cdf00"/>
  </g>
</svg>
