<svg xmlns="http://www.w3.org/2000/svg" width="487" height="378.08" viewBox="0 0 487 378.08">
  <g id="Group_86" data-name="Group 86" transform="translate(-99.5 -119.5)">
    <g id="Group_80" data-name="Group 80" transform="translate(230 120)">
      <path id="Path_13700" data-name="Path 13700" d="M430.715,580.754V573.1h-.8c-5.342,0-8.33-3.026-8.33-8.368V548.4c0-5.342,2.968-8.368,8.368-8.368h23.264c5.4,0,8.368,3.044,8.368,8.368v16.339c0,5.342-2.967,8.387-8.368,8.368h-12.12Z" transform="translate(-421.581 -540.028)" fill="none" stroke="#fff" stroke-linecap="round" stroke-linejoin="round" stroke-width="1"/>
      <line id="Line_18" data-name="Line 18" x1="21.877" transform="translate(9.061 9.797)" fill="none" stroke="#fff" stroke-linecap="round" stroke-linejoin="round" stroke-width="1"/>
      <line id="Line_19" data-name="Line 19" x1="21.877" transform="translate(9.061 16.269)" fill="none" stroke="#fff" stroke-linecap="round" stroke-linejoin="round" stroke-width="1"/>
      <line id="Line_20" data-name="Line 20" x1="14.793" transform="translate(9.061 22.76)" fill="none" stroke="#fff" stroke-linecap="round" stroke-linejoin="round" stroke-width="1"/>
    </g>
    <g id="Group_81" data-name="Group 81" transform="translate(100 172)">
      <path id="Path_13701" data-name="Path 13701" d="M346.99,546.4a9.547,9.547,0,0,1,3-7.183,6.087,6.087,0,0,1,4.12-1.847,3.629,3.629,0,0,1,3.017,1.509l4.593,6.462a4.745,4.745,0,0,1,1.036,2.613,4.1,4.1,0,0,1-1.509,2.836l-1.509,1.554a1.1,1.1,0,0,0-.314.811,2.011,2.011,0,0,0,.224.856,41.175,41.175,0,0,0,10.448,10.446,2.009,2.009,0,0,0,.878.226,1.1,1.1,0,0,0,.81-.316l1.531-1.509a4.142,4.142,0,0,1,2.814-1.531,4.576,4.576,0,0,1,2.613,1.058l6.552,4.639a3.356,3.356,0,0,1,1.441,2.882,6.439,6.439,0,0,1-1.824,4.166,9.182,9.182,0,0,1-7.138,3.129c-6.147,0-13.689-4.8-19.882-11.009C351.7,560.022,346.99,552.569,346.99,546.4Z" transform="translate(-346.99 -537.337)" fill="none" stroke="#fff" stroke-linecap="round" stroke-linejoin="round" stroke-width="1"/>
      <path id="Path_13702" data-name="Path 13702" d="M375.625,556.3l12.325-12.325v7.861a1.948,1.948,0,0,0,3.9,0V539.277a1.949,1.949,0,0,0-1.948-1.948H377.334a1.948,1.948,0,0,0,0,3.9H385.2L372.87,553.55" transform="translate(-351.846 -537.329)" fill="none" stroke="#fff" stroke-linecap="round" stroke-linejoin="round" stroke-width="1"/>
    </g>
    <path id="Path_2" data-name="Path 2" d="M344.922,483.425a20,20,0,0,0-20,20,22.672,22.672,0,0,0,3.907,11.839l-2.462,7.3,7.519-2.462a21.791,21.791,0,0,0,11.038,3.312,20,20,0,0,0,0-40Zm11.167,29.3a7.016,7.016,0,0,1-5.859,1.826,22.493,22.493,0,0,1-9.214-4.5,29.7,29.7,0,0,1-6.582-8.109,7.437,7.437,0,0,1-.89-4.16,6.637,6.637,0,0,1,2.292-4.754,2.709,2.709,0,0,1,.976-.424h1.87a1.022,1.022,0,0,1,.721.6c.213.511,1.826,4.246,1.911,4.544a1.487,1.487,0,0,1-.085,1.613c-.509.64-1.528,1.826-1.528,1.826a.691.691,0,0,0-.044.934,18.513,18.513,0,0,0,3.227,3.948,14.565,14.565,0,0,0,4.628,2.845c.976.339,1.189-.128,1.571-.6.382-.508,1.57-1.995,1.57-1.995a.913.913,0,0,1,1.189-.213l4.712,2.251a.65.65,0,0,1,.509.6,4.2,4.2,0,0,1-.977,3.774Z" transform="translate(159.576 -277.918)" fill="none" stroke="#fff" stroke-linecap="round" stroke-linejoin="round" stroke-width="1"/>
    <g id="Group_237" data-name="Group 237" transform="translate(368 135)">
      <path id="Path_5093" data-name="Path 5093" d="M413.025,486.549c-11.041,0-20,8.451-20,18.9a18.428,18.428,0,0,0,7.261,14.569v7.05l6.79-3.567a20.953,20.953,0,0,0,5.945.849c11.043,0,20-8.452,20-18.9C433.029,495.036,424.066,486.549,413.025,486.549Zm2.074,25.524-5.265-5.605L399.683,511.9l10.879-11.587,5.266,5.266,10.151-5.435Z" transform="translate(-393.021 -486.549)" fill="none" stroke="#fff" stroke-linecap="round" stroke-linejoin="round" stroke-width="1"/>
    </g>
    <g id="Group_82" data-name="Group 82" transform="translate(546 457)">
      <path id="Path_13703" data-name="Path 13703" d="M482.761,479.3a4.007,4.007,0,0,0,0,8.014h4v-4.006a4.007,4.007,0,0,0-4-4.009h0m0,10.688H472.1a4.008,4.008,0,0,0,0,8.016h10.666a4.008,4.008,0,0,0,0-8.016Z" transform="translate(-468.095 -479.302)" fill="none" stroke="#fff" stroke-linecap="round" stroke-linejoin="round" stroke-width="1" fill-rule="evenodd"/>
      <path id="Path_13704" data-name="Path 13704" d="M513.428,494a4,4,0,1,0-8,0v4.009h4A4,4,0,0,0,513.428,494Zm-10.667,0V483.309a4,4,0,1,0-8,0V494a4,4,0,1,0,8,0Z" transform="translate(-473.428 -479.302)" fill="none" stroke="#fff" stroke-linecap="round" stroke-linejoin="round" stroke-width="1" fill-rule="evenodd"/>
      <path id="Path_13705" data-name="Path 13705" d="M498.761,524.726a4.007,4.007,0,0,0,0-8.014h-4v4.007A4.006,4.006,0,0,0,498.761,524.726Zm0-10.69h10.666a4.008,4.008,0,0,0,0-8.016H498.762a4.008,4.008,0,0,0,0,8.016Z" transform="translate(-473.428 -484.646)" fill="none" stroke="#fff" stroke-linecap="round" stroke-linejoin="round" stroke-width="1" fill-rule="evenodd"/>
      <path id="Path_13706" data-name="Path 13706" d="M468.1,510.029a4,4,0,1,0,8,0v-4.007h-4A4,4,0,0,0,468.1,510.029Zm10.666,0v10.688a4,4,0,1,0,8,0V510.032a4,4,0,1,0-8,0h0" transform="translate(-468.095 -484.646)" fill="none" stroke="#fff" stroke-linecap="round" stroke-linejoin="round" stroke-width="1" fill-rule="evenodd"/>
    </g>
    <g id="Group_83" data-name="Group 83" transform="translate(153.958 -105.373)">
      <rect id="Rectangle_802" data-name="Rectangle 802" width="40" height="29.865" rx="6.304" transform="translate(392.042 436.373)" fill="none" stroke="#fff" stroke-linecap="round" stroke-linejoin="round" stroke-width="1"/>
      <path id="Path_13689" data-name="Path 13689" d="M396.234,449.695l16.864,7.283,16.428-7.283" transform="translate(-0.838 -2.664)" fill="none" stroke="#fff" stroke-linecap="round" stroke-linejoin="round" stroke-width="1"/>
    </g>
  </g>
</svg>
