<svg xmlns="http://www.w3.org/2000/svg" viewBox="0 0 41.87 41.87"><defs><style>.cls-1{fill:#fff;}</style></defs><title>Path 2</title><g id="Camada_2" data-name="Camada 2"><g id="Camada_1-2" data-name="Camada 1"><path id="Path_2" data-name="Path 2" class="cls-1" d="M20.93,0A20.93,20.93,0,0,0,0,20.94,23.76,23.76,0,0,0,4.09,33.33L1.51,41,9.38,38.4a22.88,22.88,0,0,0,11.56,3.47A20.94,20.94,0,0,0,20.94,0ZM32.62,30.67a7.31,7.31,0,0,1-6.13,1.91,23.37,23.37,0,0,1-9.64-4.71A30.88,30.88,0,0,1,10,19.38,7.74,7.74,0,0,1,9,15a7,7,0,0,1,2.4-5,3,3,0,0,1,1-.44h2a1.06,1.06,0,0,1,.76.62c.22.54,1.91,4.45,2,4.76a1.57,1.57,0,0,1-.09,1.69c-.53.67-1.6,1.91-1.6,1.91a.72.72,0,0,0-.05,1A19.45,19.45,0,0,0,18.8,23.7a15.27,15.27,0,0,0,4.85,3c1,.35,1.24-.14,1.64-.62S26.94,24,26.94,24a1,1,0,0,1,1.24-.23l4.93,2.36a.69.69,0,0,1,.54.62,4.38,4.38,0,0,1-1,4Z"/></g></g></svg>