<svg xmlns="http://www.w3.org/2000/svg" viewBox="0 0 115.49 62.06"><defs><style>.cls-1{fill:#3cdf00;}</style></defs><title>Diaries Arrow</title><g id="Camada_2" data-name="Camada 2"><g id="Layer_1" data-name="Layer 1"><path class="cls-1" d="M80,61.94a1.37,1.37,0,0,0,1.56-.31c10.69-10.51,22.79-19.51,33.5-30a1.35,1.35,0,0,0,.38-1.44,1.51,1.51,0,0,0-.38-.68c-5.65-6-12.76-10.94-19.26-16C90,9,84.19,4.55,78.24.27A1.23,1.23,0,0,0,77,.1,1.58,1.58,0,0,0,75.54,2c.88,4.61-.24,9.83-.5,14.61-24.32.18-48.84,2.88-73-.93a1.55,1.55,0,0,0-2,1.42,1.22,1.22,0,0,0,.6,1.28C7.67,26.16,8.72,38.9,6,48.67A1.34,1.34,0,0,0,6.29,50a1.36,1.36,0,0,0,1.19.62c23.54-.08,47-2.8,70.5-3v13A1.48,1.48,0,0,0,80,61.94ZM71.56,44.69c4.72-1.34,8.65-5.18,13-7.35l.26-.13q-5,3.49-9.71,7.4Zm-11.31.43c5.44-2.5,10.48-5.75,15.64-8.8,5.55-3.29,11.45-5.91,17.13-9-3,2-6.17,3.79-9.31,5.62-6.71,3.9-13.49,7.68-20,11.95l-.06.06Zm-9.68.52C65.91,39.26,80,30.7,94.63,23c1.18-.62,6.82-3.94,2.76-.88-1.87,1.4-3.84,2.65-5.82,3.88-3.89,2.44-8,4.51-12.12,6.57C72,36.29,65.58,41.74,58.1,45.23ZM5,19.07c1.3.17,2.61.32,3.91.46l-2.54.84c-.46.16-.26.88.2.73C6.81,21,11,19,9.07,21a20.18,20.18,0,0,1-2,1.74A27.48,27.48,0,0,0,5,19.07Zm16.54,1.36a50.25,50.25,0,0,0-7.2,4.4c-.55.37-5.35,2.88-4.53,2,1.83-2.07,4.09-3.71,5.92-5.79a.38.38,0,0,0-.36-.63,52.23,52.23,0,0,0-7.5,2.47c-.94.36,1.63-1.19,1.78-1.32A6.48,6.48,0,0,0,11,19.75C14.51,20.08,18,20.29,21.49,20.43Zm10.44.19c-6.74,2.88-11.91,8.85-19,11.21-4.14,1.39-.15-.74,1.43-1.6,2.15-1.17,4.37-2.23,6.55-3.36a37.68,37.68,0,0,0,9.19-6.25Zm7.82-.08c-9.47,3.32-17.28,10.05-26.54,13.91-3.8,1.58-2.81,1.31.23-.4s5.88-3.18,8.81-4.78a83.92,83.92,0,0,0,13.2-8.67C36.88,20.59,38.32,20.57,39.75,20.54Zm5.77-.14C34.34,25.59,24.61,33.46,13.17,38.29c-5.54,2.34-.69-.29,1.58-1.87a65.66,65.66,0,0,1,9.36-5.36c6.29-3,11.83-7.28,18-10.5a.24.24,0,0,0,.09-.08Zm7.28-.24c-5.89,2.5-11.08,6.38-16.67,9.52-3.44,1.93-7.2,3.42-10.77,5.1A95.63,95.63,0,0,0,14.27,41.2c-1.18.76-2.91,1.28-3.93,2.23a61.92,61.92,0,0,1,6.11-4.82A115.24,115.24,0,0,1,27.34,32c6.83-3.82,13.81-7.31,20.35-11.62Zm8.64-.29A95.51,95.51,0,0,0,50,26.73c-3,1.6-5.94,3.06-9,4.5-8.65,4.05-16.77,8.89-25.16,13.41a27.51,27.51,0,0,1-2.77,1.24c1.34-.73,2.65-1.53,3.94-2.33,4.48-2.75,8.71-5.9,13.14-8.72,8.17-5.19,16.63-10.64,25.42-14.76Zm10.32-.26c-6.39,2.56-12.05,6.55-18.14,9.8-4,2.11-8.21,3.71-12.19,5.83-4.71,2.5-9.28,5.21-14,7.63a75.55,75.55,0,0,1-7.94,3.45,32.53,32.53,0,0,0,4.78-2.39c4.45-2.8,8.73-5.85,13.28-8.5,3.71-2.15,7.28-4.54,10.86-6.91.35-.18.71-.35,1.06-.54,4.81-2.61,9.35-5.66,14.21-8.18C66.35,19.72,69.06,19.66,71.76,19.61Zm22.71-3.32a13,13,0,0,0-3.46.37c.54-.34,1.08-.7,1.6-1.1a.38.38,0,0,0-.19-.7,21.75,21.75,0,0,0-8.67,1.92c-.63.25-5.66,2.49-3.12.69a29.44,29.44,0,0,1,5.89-2.87c.35-.15.36-.8-.1-.74a16.19,16.19,0,0,0-6,2.2c-3.64,2,.73-1.23.85-1.31a26.45,26.45,0,0,1,3.88-2.19c.44-.22,0-.84-.38-.65-1.33.6-5.12,1.77-5.84,2.69,1.14-1.46,2.61-2.67,3.79-4.1.26-.3-.08-.85-.45-.59-3.52,2.45-1.25-1.19-.49-2.49.21-.34-.18-.66-.51-.51-2.24,1-2.09,0-1.52-1.86C84.69,8.72,89.59,12.5,94.47,16.29ZM82.32,18.37C65.81,25.23,51.23,35.76,35.18,43.55c-.88.43-6.93,4.1-3.07,1.49,2-1.36,4-2.74,6-4.09,4-2.71,8.12-5.27,12.38-7.57,8.13-4.4,15.76-9.66,24-13.79l1.91,0A1.51,1.51,0,0,0,78,18.08a.51.51,0,0,0,.13,0l1.49-.74c-.49.36-1,.74-1.45,1.15-.3.27,0,.69.37.63A28.66,28.66,0,0,0,84,17.5c.92-.36,1.84-.71,2.78-1a25.45,25.45,0,0,1,4.39-.72,18.77,18.77,0,0,1-3.86,2.19l-.87.37c-1.45.61-2.94,1.15-4.38,1.76-1.23.16-1.79.42-1.68.77-.37.18-.74.37-1.1.57s-.12.84.29.69c3.82-1.4,7.39-3.38,11.28-4.61A12.09,12.09,0,0,1,94.34,17c-1.29,0-3.35,1.58-4.77,2.09a50.86,50.86,0,0,0-5.84,2.35c-4.81,2.44-9,6.22-13.77,8.82-5.27,2.86-10.8,5.27-16.22,7.8-5,2.31-9.55,5.33-14.75,7.12-4.14,1.42,2.64-1.82,3.49-2.35,2.62-1.63,5.21-3.33,7.83-5,10.58-6.58,21.87-12,32.3-18.78C83,18.84,82.73,18.2,82.32,18.37ZM78.73,8.05a.39.39,0,0,0,.19.06,5,5,0,0,0,1.93-.2,6.59,6.59,0,0,0-2.31,2.66C78.61,9.73,78.68,8.89,78.73,8.05Zm-.64,7.53c.53-.15,1-.28,1.43-.42A9.44,9.44,0,0,0,78,16.87C78,16.44,78.06,16,78.09,15.58Zm.26-3a7.65,7.65,0,0,0,3.2-1.25,17.28,17.28,0,0,0-3.36,3C78.24,13.73,78.29,13.13,78.35,12.54Zm.71-7.9a8.84,8.84,0,0,0-.26.94c0-.41,0-.81,0-1.21l.3.22S79.06,4.62,79.06,4.64ZM10.34,40.13c2.32-.82,4.58-1.77,6.8-2.8a72.07,72.07,0,0,0-7,5.29C10.26,41.8,10.31,41,10.34,40.13Zm0-3.93C20.31,33,28.37,26,38,22c-.72.43-1.42.87-2.13,1.31-3,1.85-5.89,3.77-8.94,5.5C21.21,32,15.67,34.89,10.38,38.69Q10.4,37.45,10.32,36.2ZM9,28c4-.88,7.08-3.53,10.45-5.69a9.82,9.82,0,0,0,2.09-1.35c-1.6,1.36-3.28,2.64-5,3.91-2.31,1.76-4.7,3.42-7.11,5C9.33,29.25,9.17,28.62,9,28Zm1,16.21a42.45,42.45,0,0,0,7.23-4A87.63,87.63,0,0,1,28.9,33.93c5.3-2.51,10.26-5.57,15.31-8.48-3.83,2.33-7.6,4.74-11.48,7C24.84,36.93,17.82,42.86,9.56,46.75,9.73,45.9,9.87,45.05,10,44.19ZM36.33,26.3l.35-.23c1.57-1,3.18-1.92,4.81-2.84.68-.38,7.26-4.44,3.61-2.1C42.24,23,39.3,24.66,36.33,26.3ZM31.8,22.52a76.3,76.3,0,0,1-7,4.47C20,29.8,15,32.27,10.23,35.05c-.05-.67-.12-1.34-.21-2,7.84-.7,13.59-7,20.14-10.82.89-.51,2.14-1.19,3.05-1.61h.95A22,22,0,0,1,31.8,22.52ZM9.88,32c-.06-.37-.14-.74-.21-1.12a47.73,47.73,0,0,0,9.71-4.75c1.95-1.18,3.87-2.4,5.82-3.58,1-.62,2.63-1.19,3.76-1.94h.16C24,25.82,16,28.13,9.88,32Zm3.3-3.26c-6.85,3.42.91-1.13,2.45-2.25,2.6-1.89,5.11-3.9,7.55-6h0c1.36,0,2.73.07,4.1.09C22.5,23.12,18.05,26.3,13.18,28.74ZM14,21.42c-1.17.36-3.93,3.76-5.36,5.46A31,31,0,0,0,7.5,23.74C9.67,22.94,11.81,22.09,14,21.42ZM20.2,43c4.74-2.83,9.6-5.34,14.52-7.85,3.13-1.6,6.34-3,9.51-4.55l-1.5,1c-8.16,5.22-16.52,10.67-25,15.33a.35.35,0,0,0-.14.47q-3.91.12-7.82.17C13.59,46.87,16.89,45,20.2,43Zm21.6-7.11c4-2.16,8.16-3.82,12.2-5.84,4.35-2.17,8.39-4.94,12.65-7.29a46.12,46.12,0,0,1,5.81-2.66,32.37,32.37,0,0,0-3.76,1.7c-4.7,2.59-9.21,5.53-13.82,8.29C46,35.39,37.32,40.65,28.73,46.41a.41.41,0,0,0-.12.51c-3.3.17-6.61.32-9.91.43C26.86,44.49,34.23,40,41.8,35.89Zm34.36-14a38.93,38.93,0,0,0,4.48-2.47c-2.11,1.38-4.28,2.66-6.46,3.93-4.29,2.51-8.69,4.85-13,7.28-8.63,4.83-16.78,10.46-25.42,15.25a.35.35,0,0,0,0,.62l-6.2.35C45.83,40,60.28,29.63,76.16,21.92Zm-26.45,19c5.08-2.77,10.5-5,15.72-7.54A89.62,89.62,0,0,0,80.3,24.63c4.71-3.5,10.35-4.49,15.24-7.53,1.32,1,2.66,2,4,3.06C92.6,22.57,86.71,27,80.23,30.41c-8.63,4.5-17.32,9-26.2,13A21.63,21.63,0,0,0,50.72,45a37.91,37.91,0,0,1,3.44-2.74,61.23,61.23,0,0,1,5.33-3.36C62.65,37.07,66,35.54,69.27,34l.14-.06a174.07,174.07,0,0,0,16.33-8.5c3.89-2.08,7.81-4.09,11.87-5.85.39-.17.11-.84-.29-.69l-1.82.73a2.7,2.7,0,0,0-1.06.47c-2.25,1-4.43,2.13-6.59,3.32q-2,1-4,2.13c-4.46,2.39-8.89,4.83-13.41,7.08l-1.13.56A209.25,209.25,0,0,0,43.23,45.91a.37.37,0,0,0-.15.18l-6.58.4C41.29,45.49,45.43,43.22,49.71,40.89ZM104,23.64A148.19,148.19,0,0,0,80,36.6c-3.81,2.15-7.61,4.32-11.54,6.25l-.33.13.53-.34c2-1.27,4.09-2.47,6.15-3.68,7.91-4.64,15.93-9,23.47-14.26a1,1,0,0,0,.68-.48c.56-.38,1.11-.76,1.66-1.16.38-.28,0-.89-.38-.65-4.51,2.5-9.07,4.89-13.63,7.27a100.3,100.3,0,0,0,13.74-8.92C101.58,21.71,102.82,22.66,104,23.64Zm2.19,1.77a103.59,103.59,0,0,0-16.36,8.43c-3.53,1.67-7.22,3.19-10.34,5.44-1.7,1.22-3.41,2.38-5.22,3.45-6.69,4,.35-1.56,2.22-2.9,1-.75,2.11-1.49,3.19-2.21l4.38-2.46c6.86-3.81,14.17-6.61,20.79-10.83Zm-17.1,6.41c4-2.26,8.09-4.34,12.25-6.25l.35-.13-.62.38C99,27,96.84,28.09,94.67,29.13ZM57.92,39a47.42,47.42,0,0,0-8.77,6.44.32.32,0,0,0-.09.26L44.57,46C48.91,43.45,53.38,41.16,57.92,39Zm24.21-7L78.53,34c-3.56,1.91-7,4.1-10.44,6.17l-.91.53c1.19-.86,2.38-1.72,3.59-2.54a93,93,0,0,1,10.61-5.68Zm-8.27,8.84c-1.59,1.17-3.16,2.36-4.71,3.59a.32.32,0,0,0-.09.3l-3.37.11C68.48,43.67,71.19,42.31,73.86,40.88ZM81,52.77c5-2.87,10-5.79,14.8-9-1.24,1-2.49,2.06-3.79,3-3.92,2.95-7.84,5.42-11,9.13Zm0-4.3c4.77-1.12,8.55-4,12.39-7a66.23,66.23,0,0,1,7.82-5.24l1-.57a65.45,65.45,0,0,0-8.59,6.78C89.91,46.07,85,48,81,51.3Zm0-2.64A43.34,43.34,0,0,0,87.7,42Q84.25,44.52,81,47.28V46.07A1.66,1.66,0,0,0,81,45.83Zm-.73-1.07a1.46,1.46,0,0,0-.75-.19l-1.86,0A68.47,68.47,0,0,0,87.14,39a100.32,100.32,0,0,1,15.19-8l-2.41,1.12a66.26,66.26,0,0,0-7.19,3.75C88.38,38.62,84.28,41.64,80.23,44.76ZM81,58v-.89c2.83-3.6,6.4-6.13,10.14-8.74A102.94,102.94,0,0,0,100,40.86c.73-.52,1.46-1,2.17-1.57C95.09,45.48,87.79,51.49,81,58Zm30.86-27.48c-.87.83-1.74,1.67-2.62,2.49a.34.34,0,0,0-.49-.12c-2.79,2.07-5.41,4.35-8,6.64-2.92,2.14-5.95,4.12-9,6S85.23,49.47,82,51.35a36.35,36.35,0,0,1,3.45-2.44c1.67-1.09,3.42-2.08,5.11-3.16,2.77-1.75,5-4.09,7.52-6.17a93.31,93.31,0,0,1,9.88-6.78q1.19-.22,1.17-.75l1.53-1c.4-.27,0-.9-.38-.65-4.5,2.71-9.31,4.87-13.68,7.79-4.55,3-8.37,6.85-13.5,9-1.39.59-1.75.67-1.08.23,1.72-1.48,3.53-2.84,5.35-4.19,2.34-1.73,4.78-3.32,7.23-4.89,4-2.58,8.2-5,12.39-7.27.76-.09,1.13-.3,1.13-.63l1.54-.85c.42-.23,0-.87-.38-.65-4.47,2.35-9.2,3.78-13.45,6.54-4.42,2.88-8.48,6.22-13.1,8.78a8.89,8.89,0,0,0-1.91,1.06h0c1.71-1.32,3.43-2.63,5.16-3.91,2.32-1.71,4.73-3.3,7.19-4.81,4.52-2.79,9.62-4.48,14-7.5.33-.23.13-.85-.29-.69A130.34,130.34,0,0,0,84.09,40.1q-2.64,1.73-5.42,3.22c-5.45,2.92-.73-.08.46-1A121.59,121.59,0,0,1,89.42,35c5.81-2.81,11.68-5.6,17.19-8.89a.39.39,0,0,0,.15-.19C108.53,27.36,110.23,28.91,111.84,30.54Zm-20.53,9A72.94,72.94,0,0,1,98,35.35q-1.9,1.14-3.78,2.31C93.2,38.27,92.25,38.89,91.31,39.53Z"/></g></g></svg>