<?xml version="1.0" encoding="utf-8"?>
<!-- Generator: Adobe Illustrator 25.0.1, SVG Export Plug-In . SVG Version: 6.00 Build 0)  -->
<svg version="1.1" id="Layer_1" xmlns="http://www.w3.org/2000/svg" xmlns:xlink="http://www.w3.org/1999/xlink" x="0px" y="0px"
	 viewBox="0 0 26.5 26.2" style="enable-background:new 0 0 26.5 26.2;" xml:space="preserve">
<style type="text/css">
	.st0{fill:none;stroke:#000000;stroke-width:1.5;stroke-linecap:round;stroke-linejoin:round;}
</style>
<path id="Subtraction_6" class="st0" d="M13.3,25.5h-0.1c-0.2,0-0.4,0-0.6,0c-0.3,0-0.5-0.2-0.6-0.5l-0.3-1
	c-0.1-0.2-0.3-0.4-0.5-0.5c-0.5-0.1-1-0.2-1.5-0.4c-0.2-0.1-0.5,0-0.6,0.1L8.2,24c-0.2,0.2-0.5,0.2-0.8,0.1c-0.3-0.2-0.7-0.4-1-0.6
	c-0.2-0.2-0.3-0.4-0.3-0.7l0.2-0.4c0-0.2,0-0.5-0.2-0.6c-0.2-0.2-0.4-0.3-0.5-0.5s-0.4-0.4-0.5-0.6c-0.2-0.2-0.4-0.3-0.6-0.2
	l-1.1,0.2c0,0-0.1,0-0.1,0c-0.2,0-0.4-0.1-0.6-0.3c-0.2-0.3-0.4-0.7-0.6-1C2,19.1,2,18.8,2.2,18.6l0.7-0.9c0.2-0.2,0.2-0.4,0.1-0.7
	c-0.2-0.5-0.3-1-0.4-1.5c0-0.2-0.2-0.4-0.4-0.5l-1-0.4c-0.3-0.1-0.4-0.3-0.4-0.6c0-0.2,0-0.4,0-0.6s0-0.4,0-0.6
	c0-0.3,0.2-0.5,0.4-0.6l1-0.4c0.2-0.1,0.4-0.3,0.4-0.5c0.1-0.5,0.2-1,0.4-1.5c0.1-0.2,0-0.5-0.1-0.7L2.2,8.4C2,8.2,2,7.9,2.1,7.6
	c0.2-0.4,0.4-0.7,0.6-1.1C2.8,6.4,3,6.3,3.3,6.3c0,0,0.1,0,0.1,0l1.1,0.2c0.2,0,0.5,0,0.6-0.2c0.2-0.2,0.3-0.4,0.5-0.6
	C5.8,5.5,6,5.4,6.2,5.2C6.4,5,6.4,4.8,6.4,4.6L6.2,3.5C6.1,3.2,6.2,2.9,6.5,2.8c0.3-0.2,0.7-0.4,1-0.6C7.7,2,8,2,8.2,2.2L9.1,3
	c0.1,0.1,0.3,0.2,0.4,0.2c0.1,0,0.1,0,0.2,0c0.5-0.2,1-0.3,1.5-0.4c0.2,0,0.4-0.2,0.5-0.5l0.3-1c0.1-0.3,0.3-0.4,0.6-0.5
	c0.2,0,0.4,0,0.6,0s0.4,0,0.6,0c0.3,0,0.5,0.2,0.6,0.5l0.3,1c0.1,0.2,0.3,0.4,0.5,0.5c0.5,0.1,1,0.2,1.5,0.4c0.1,0,0.1,0,0.2,0
	c0.2,0,0.3-0.1,0.4-0.2l0.8-0.7c0.1-0.1,0.3-0.2,0.4-0.2c0.1,0,0.2,0,0.3,0.1c0.3,0.2,0.7,0.4,1,0.6c0.2,0.2,0.3,0.4,0.3,0.7
	l-0.2,1.1c0,0.2,0,0.5,0.2,0.6c0.2,0.2,0.4,0.3,0.5,0.5s0.4,0.4,0.5,0.6c0.1,0.1,0.3,0.2,0.5,0.2c0,0,0.1,0,0.1,0l1.1-0.2
	c0,0,0.1,0,0.1,0c0.2,0,0.4,0.1,0.6,0.3c0.2,0.3,0.4,0.7,0.6,1c0.1,0.2,0.1,0.6-0.1,0.8l-0.7,0.8c-0.2,0.2-0.2,0.4-0.1,0.7
	c0.2,0.5,0.3,1,0.4,1.5c0,0.2,0.2,0.4,0.4,0.5l1,0.4c0.3,0.1,0.4,0.3,0.4,0.6c0,0.2,0,0.4,0,0.6s0,0.4,0,0.6c0,0.3-0.2,0.5-0.4,0.6
	l-1,0.4c-0.2,0.1-0.4,0.3-0.4,0.5c-0.1,0.5-0.2,1-0.4,1.5c-0.1,0.2,0,0.5,0.1,0.7l0.7,0.8c0.2,0.2,0.2,0.5,0.1,0.8
	c-0.2,0.4-0.4,0.7-0.6,1c-0.1,0.2-0.4,0.4-0.7,0.3L22,20.5c0,0-0.1,0-0.1,0c-0.2,0-0.4,0.1-0.5,0.2c-0.2,0.2-0.3,0.4-0.5,0.6
	s-0.4,0.4-0.5,0.5c-0.2,0.2-0.3,0.4-0.2,0.6l0.2,0.4c0,0.3-0.1,0.5-0.3,0.7c-0.3,0.2-0.7,0.4-1,0.6c-0.2,0.1-0.5,0.1-0.7-0.1
	l-0.8-0.7c-0.1-0.1-0.3-0.2-0.4-0.2c-0.1,0-0.1,0-0.2,0c-0.5,0.2-1,0.3-1.5,0.4c-0.2,0.1-0.4,0.2-0.5,0.5l-0.3,1
	c-0.1,0.3-0.3,0.4-0.6,0.5C13.7,25.5,13.5,25.5,13.3,25.5z M13.2,9C10.9,8.9,9,10.7,9,13s1.8,4.2,4,4.2s4.2-1.8,4.2-4
	c0,0,0-0.1,0-0.1C17.3,10.9,15.5,9,13.2,9z"/>
</svg>
