<?xml version="1.0" encoding="utf-8"?>
<!-- Generator: Adobe Illustrator 25.0.1, SVG Export Plug-In . SVG Version: 6.00 Build 0)  -->
<svg version="1.1" id="Layer_1" xmlns="http://www.w3.org/2000/svg" xmlns:xlink="http://www.w3.org/1999/xlink" x="0px" y="0px"
	 viewBox="0 0 25 24.9" style="enable-background:new 0 0 25 24.9;" xml:space="preserve">
<style type="text/css">
	.st0{fill:none;stroke:#000000;stroke-width:1.5;stroke-linecap:round;stroke-linejoin:round;}
</style>
<path class="st0" d="M3.1,9.5L3.1,9.5c1.3,0,2.3,1,2.3,2.3v10c0,1.3-1,2.3-2.3,2.3l0,0c-1.3,0-2.3-1-2.3-2.3v-10
	C0.8,10.6,1.8,9.5,3.1,9.5z"/>
<path class="st0" d="M12.5,5.1L12.5,5.1c1.3,0,2.3,1,2.3,2.3v14.4c0,1.3-1,2.3-2.3,2.3l0,0c-1.3,0-2.3-1-2.3-2.3V7.4
	C10.2,6.2,11.2,5.1,12.5,5.1z"/>
<path class="st0" d="M21.9,0.8L21.9,0.8c1.3,0,2.3,1,2.3,2.3v18.8c0,1.3-1,2.3-2.3,2.3l0,0c-1.3,0-2.3-1-2.3-2.3V3.1
	C19.6,1.8,20.7,0.8,21.9,0.8z"/>
</svg>
